<?xml version="1.0" encoding="UTF-8" standalone="no"?>
<!DOCTYPE svg PUBLIC "-//W3C//DTD SVG 1.1//EN"
 "http://www.w3.org/Graphics/SVG/1.1/DTD/svg11.dtd">
<!-- Generated by graphviz version 2.26.3 (20100126.1600)
 -->
<!-- Title: models_diagram Pages: 1 -->
<svg width="2582pt" height="2066pt"
 viewBox="0.00 0.00 2581.61 2066.00" xmlns="http://www.w3.org/2000/svg" xmlns:xlink="http://www.w3.org/1999/xlink">
<g id="graph1" class="graph" transform="scale(1 1) rotate(0) translate(4 2062)">
<title>models_diagram</title>
<polygon fill="white" stroke="white" points="-4,5 -4,-2062 2578.61,-2062 2578.61,5 -4,5"/>
<!-- Recommendation -->
<g id="node1" class="node"><title>Recommendation</title>
<polyline fill="none" stroke="black" points="774.11,-745 939.11,-745 "/>
<path fill="none" stroke="black" d="M939.11,-745C945.11,-745 951.11,-751 951.11,-757"/>
<polyline fill="none" stroke="black" points="951.11,-757 951.11,-875 "/>
<path fill="none" stroke="black" d="M951.11,-875C951.11,-881 945.11,-887 939.11,-887"/>
<polyline fill="none" stroke="black" points="939.11,-887 774.11,-887 "/>
<path fill="none" stroke="black" d="M774.11,-887C768.11,-887 762.11,-881 762.11,-875"/>
<polyline fill="none" stroke="black" points="762.11,-875 762.11,-757 "/>
<path fill="none" stroke="black" d="M762.11,-757C762.11,-751 768.11,-745 774.11,-745"/>
<text text-anchor="middle" x="856.61" y="-870.4" font-family="Times Roman,serif" font-size="14.00">Recommendation</text>
<polyline fill="none" stroke="black" points="762.11,-861 951.11,-861 "/>
<text text-anchor="start" x="770.11" y="-844.4" font-family="Times Roman,serif" font-size="14.00">id :integer</text>
<text text-anchor="start" x="770.11" y="-826.4" font-family="Times Roman,serif" font-size="14.00">problem_id :integer</text>
<text text-anchor="start" x="770.11" y="-808.4" font-family="Times Roman,serif" font-size="14.00">student_id :integer</text>
<text text-anchor="start" x="770.11" y="-790.4" font-family="Times Roman,serif" font-size="14.00">recommender_id :integer</text>
<text text-anchor="start" x="770.11" y="-772.4" font-family="Times Roman,serif" font-size="14.00">created_at :datetime</text>
<text text-anchor="start" x="770.11" y="-754.4" font-family="Times Roman,serif" font-size="14.00">updated_at :datetime</text>
</g>
<!-- Debugger -->
<g id="node2" class="node"><title>Debugger</title>
<polyline fill="none" stroke="black" points="1875.11,-1888 2016.11,-1888 "/>
<path fill="none" stroke="black" d="M2016.11,-1888C2022.11,-1888 2028.11,-1894 2028.11,-1900"/>
<polyline fill="none" stroke="black" points="2028.11,-1900 2028.11,-1964 "/>
<path fill="none" stroke="black" d="M2028.11,-1964C2028.11,-1970 2022.11,-1976 2016.11,-1976"/>
<polyline fill="none" stroke="black" points="2016.11,-1976 1875.11,-1976 "/>
<path fill="none" stroke="black" d="M1875.11,-1976C1869.11,-1976 1863.11,-1970 1863.11,-1964"/>
<polyline fill="none" stroke="black" points="1863.11,-1964 1863.11,-1900 "/>
<path fill="none" stroke="black" d="M1863.11,-1900C1863.11,-1894 1869.11,-1888 1875.11,-1888"/>
<text text-anchor="middle" x="1945.61" y="-1959.4" font-family="Times Roman,serif" font-size="14.00">Debugger</text>
<polyline fill="none" stroke="black" points="1863.11,-1950 2028.11,-1950 "/>
<text text-anchor="start" x="1871.11" y="-1933.4" font-family="Times Roman,serif" font-size="14.00">id :integer</text>
<text text-anchor="start" x="1871.11" y="-1915.4" font-family="Times Roman,serif" font-size="14.00">created_at :datetime</text>
<text text-anchor="start" x="1871.11" y="-1897.4" font-family="Times Roman,serif" font-size="14.00">updated_at :datetime</text>
</g>
<!-- Admin -->
<g id="node3" class="node"><title>Admin</title>
<polyline fill="none" stroke="black" points="598.11,-961 743.11,-961 "/>
<path fill="none" stroke="black" d="M743.11,-961C749.11,-961 755.11,-967 755.11,-973"/>
<polyline fill="none" stroke="black" points="755.11,-973 755.11,-1199 "/>
<path fill="none" stroke="black" d="M755.11,-1199C755.11,-1205 749.11,-1211 743.11,-1211"/>
<polyline fill="none" stroke="black" points="743.11,-1211 598.11,-1211 "/>
<path fill="none" stroke="black" d="M598.11,-1211C592.11,-1211 586.11,-1205 586.11,-1199"/>
<polyline fill="none" stroke="black" points="586.11,-1199 586.11,-973 "/>
<path fill="none" stroke="black" d="M586.11,-973C586.11,-967 592.11,-961 598.11,-961"/>
<text text-anchor="middle" x="670.61" y="-1194.4" font-family="Times Roman,serif" font-size="14.00">Admin</text>
<polyline fill="none" stroke="black" points="586.11,-1185 755.11,-1185 "/>
<text text-anchor="start" x="594.11" y="-1168.4" font-family="Times Roman,serif" font-size="14.00">id :integer</text>
<text text-anchor="start" x="594.11" y="-1150.4" font-family="Times Roman,serif" font-size="14.00">name :string</text>
<text text-anchor="start" x="594.11" y="-1132.4" font-family="Times Roman,serif" font-size="14.00">email :string</text>
<text text-anchor="start" x="594.11" y="-1114.4" font-family="Times Roman,serif" font-size="14.00">verified_type :boolean</text>
<text text-anchor="start" x="594.11" y="-1096.4" font-family="Times Roman,serif" font-size="14.00">password :string</text>
<text text-anchor="start" x="594.11" y="-1078.4" font-family="Times Roman,serif" font-size="14.00">dob :date</text>
<text text-anchor="start" x="594.11" y="-1060.4" font-family="Times Roman,serif" font-size="14.00">age :integer</text>
<text text-anchor="start" x="594.11" y="-1042.4" font-family="Times Roman,serif" font-size="14.00">profile_image :string</text>
<text text-anchor="start" x="594.11" y="-1024.4" font-family="Times Roman,serif" font-size="14.00">gender :boolean</text>
<text text-anchor="start" x="594.11" y="-1006.4" font-family="Times Roman,serif" font-size="14.00">type :string</text>
<text text-anchor="start" x="594.11" y="-988.4" font-family="Times Roman,serif" font-size="14.00">created_at :datetime</text>
<text text-anchor="start" x="594.11" y="-970.4" font-family="Times Roman,serif" font-size="14.00">updated_at :datetime</text>
</g>
<!-- Reply -->
<g id="node8" class="node"><title>Reply</title>
<polyline fill="none" stroke="black" points="406.11,-500 547.11,-500 "/>
<path fill="none" stroke="black" d="M547.11,-500C553.11,-500 559.11,-506 559.11,-512"/>
<polyline fill="none" stroke="black" points="559.11,-512 559.11,-630 "/>
<path fill="none" stroke="black" d="M559.11,-630C559.11,-636 553.11,-642 547.11,-642"/>
<polyline fill="none" stroke="black" points="547.11,-642 406.11,-642 "/>
<path fill="none" stroke="black" d="M406.11,-642C400.11,-642 394.11,-636 394.11,-630"/>
<polyline fill="none" stroke="black" points="394.11,-630 394.11,-512 "/>
<path fill="none" stroke="black" d="M394.11,-512C394.11,-506 400.11,-500 406.11,-500"/>
<text text-anchor="middle" x="476.61" y="-625.4" font-family="Times Roman,serif" font-size="14.00">Reply</text>
<polyline fill="none" stroke="black" points="394.11,-616 559.11,-616 "/>
<text text-anchor="start" x="402.11" y="-599.4" font-family="Times Roman,serif" font-size="14.00">id :integer</text>
<text text-anchor="start" x="402.11" y="-581.4" font-family="Times Roman,serif" font-size="14.00">content :text</text>
<text text-anchor="start" x="402.11" y="-563.4" font-family="Times Roman,serif" font-size="14.00">post_id :integer</text>
<text text-anchor="start" x="402.11" y="-545.4" font-family="Times Roman,serif" font-size="14.00">user_id :integer</text>
<text text-anchor="start" x="402.11" y="-527.4" font-family="Times Roman,serif" font-size="14.00">created_at :datetime</text>
<text text-anchor="start" x="402.11" y="-509.4" font-family="Times Roman,serif" font-size="14.00">updated_at :datetime</text>
</g>
<!-- Admin&#45;&gt;Reply -->
<g id="edge4" class="edge"><title>Admin&#45;&gt;Reply</title>
<path fill="none" stroke="#db4c61" d="M580.248,-962.608C579.371,-961.73 578.492,-960.861 577.61,-960 547.697,-930.804 521.21,-942.37 500.61,-906 456.648,-828.387 456.657,-723.908 463.783,-652.387"/>
<ellipse fill="none" stroke="#db4c61" cx="583.213" cy="-965.653" rx="4.00002" ry="4.00002"/>
<polygon fill="#db4c61" stroke="#db4c61" points="463.821,-652.024 469.356,-642.558 464.352,-647.052 464.882,-642.08 464.882,-642.08 464.882,-642.08 464.352,-647.052 460.407,-641.603 463.821,-652.024 463.821,-652.024"/>
</g>
<!-- Post -->
<g id="node15" class="node"><title>Post</title>
<polyline fill="none" stroke="black" points="250.61,-736 436.61,-736 "/>
<path fill="none" stroke="black" d="M436.61,-736C442.61,-736 448.61,-742 448.61,-748"/>
<polyline fill="none" stroke="black" points="448.61,-748 448.61,-884 "/>
<path fill="none" stroke="black" d="M448.61,-884C448.61,-890 442.61,-896 436.61,-896"/>
<polyline fill="none" stroke="black" points="436.61,-896 250.61,-896 "/>
<path fill="none" stroke="black" d="M250.61,-896C244.61,-896 238.61,-890 238.61,-884"/>
<polyline fill="none" stroke="black" points="238.61,-884 238.61,-748 "/>
<path fill="none" stroke="black" d="M238.61,-748C238.61,-742 244.61,-736 250.61,-736"/>
<text text-anchor="middle" x="343.61" y="-879.4" font-family="Times Roman,serif" font-size="14.00">Post</text>
<polyline fill="none" stroke="black" points="238.61,-870 448.61,-870 "/>
<text text-anchor="start" x="246.61" y="-853.4" font-family="Times Roman,serif" font-size="14.00">id :integer</text>
<text text-anchor="start" x="246.61" y="-835.4" font-family="Times Roman,serif" font-size="14.00">content :text</text>
<text text-anchor="start" x="246.61" y="-817.4" font-family="Times Roman,serif" font-size="14.00">views_count :integer</text>
<text text-anchor="start" x="246.61" y="-799.4" font-family="Times Roman,serif" font-size="14.00">discussion_board_id :integer</text>
<text text-anchor="start" x="246.61" y="-781.4" font-family="Times Roman,serif" font-size="14.00">user_id :integer</text>
<text text-anchor="start" x="246.61" y="-763.4" font-family="Times Roman,serif" font-size="14.00">created_at :datetime</text>
<text text-anchor="start" x="246.61" y="-745.4" font-family="Times Roman,serif" font-size="14.00">updated_at :datetime</text>
</g>
<!-- Admin&#45;&gt;Post -->
<g id="edge2" class="edge"><title>Admin&#45;&gt;Post</title>
<path fill="none" stroke="#77b8ab" d="M578.923,-960.786C578.487,-960.521 578.049,-960.259 577.61,-960 524.71,-928.806 493.823,-972.657 440.61,-942 424.009,-932.436 409.279,-918.796 396.627,-903.995"/>
<ellipse fill="none" stroke="#77b8ab" cx="582.515" cy="-963.133" rx="4.00002" ry="4.00002"/>
<polygon fill="#77b8ab" stroke="#77b8ab" points="396.545,-903.895 393.68,-893.309 393.373,-900.029 390.202,-896.164 390.202,-896.164 390.202,-896.164 393.373,-900.029 386.723,-899.019 396.545,-903.895 396.545,-903.895"/>
</g>
<!-- TrackProgression -->
<g id="node23" class="node"><title>TrackProgression</title>
<polyline fill="none" stroke="black" points="554.11,-745 695.11,-745 "/>
<path fill="none" stroke="black" d="M695.11,-745C701.11,-745 707.11,-751 707.11,-757"/>
<polyline fill="none" stroke="black" points="707.11,-757 707.11,-875 "/>
<path fill="none" stroke="black" d="M707.11,-875C707.11,-881 701.11,-887 695.11,-887"/>
<polyline fill="none" stroke="black" points="695.11,-887 554.11,-887 "/>
<path fill="none" stroke="black" d="M554.11,-887C548.11,-887 542.11,-881 542.11,-875"/>
<polyline fill="none" stroke="black" points="542.11,-875 542.11,-757 "/>
<path fill="none" stroke="black" d="M542.11,-757C542.11,-751 548.11,-745 554.11,-745"/>
<text text-anchor="middle" x="624.61" y="-870.4" font-family="Times Roman,serif" font-size="14.00">TrackProgression</text>
<polyline fill="none" stroke="black" points="542.11,-861 707.11,-861 "/>
<text text-anchor="start" x="550.11" y="-844.4" font-family="Times Roman,serif" font-size="14.00">id :integer</text>
<text text-anchor="start" x="550.11" y="-826.4" font-family="Times Roman,serif" font-size="14.00">level :integer</text>
<text text-anchor="start" x="550.11" y="-808.4" font-family="Times Roman,serif" font-size="14.00">user_id :integer</text>
<text text-anchor="start" x="550.11" y="-790.4" font-family="Times Roman,serif" font-size="14.00">topic_id :integer</text>
<text text-anchor="start" x="550.11" y="-772.4" font-family="Times Roman,serif" font-size="14.00">created_at :datetime</text>
<text text-anchor="start" x="550.11" y="-754.4" font-family="Times Roman,serif" font-size="14.00">updated_at :datetime</text>
</g>
<!-- Admin&#45;&gt;TrackProgression -->
<g id="edge6" class="edge"><title>Admin&#45;&gt;TrackProgression</title>
<path fill="none" stroke="#a7ab5d" d="M580.754,-963.785C579.705,-962.514 578.656,-961.252 577.61,-960 570.552,-951.558 564.675,-952.225 560.61,-942 554.698,-927.131 555.952,-911.662 561.104,-896.861"/>
<ellipse fill="none" stroke="#a7ab5d" cx="583.479" cy="-967.118" rx="4.00002" ry="4.00002"/>
<polygon fill="#a7ab5d" stroke="#a7ab5d" points="561.248,-896.508 569.185,-888.941 563.132,-891.877 565.016,-887.246 565.016,-887.246 565.016,-887.246 563.132,-891.877 560.848,-885.55 561.248,-896.508 561.248,-896.508"/>
<text text-anchor="middle" x="603.61" y="-929.4" font-family="Times Roman,serif" font-size="14.00">progressions</text>
</g>
<!-- CodeEditor -->
<g id="node4" class="node"><title>CodeEditor</title>
<polyline fill="none" stroke="black" points="2057.11,-1888 2198.11,-1888 "/>
<path fill="none" stroke="black" d="M2198.11,-1888C2204.11,-1888 2210.11,-1894 2210.11,-1900"/>
<polyline fill="none" stroke="black" points="2210.11,-1900 2210.11,-1964 "/>
<path fill="none" stroke="black" d="M2210.11,-1964C2210.11,-1970 2204.11,-1976 2198.11,-1976"/>
<polyline fill="none" stroke="black" points="2198.11,-1976 2057.11,-1976 "/>
<path fill="none" stroke="black" d="M2057.11,-1976C2051.11,-1976 2045.11,-1970 2045.11,-1964"/>
<polyline fill="none" stroke="black" points="2045.11,-1964 2045.11,-1900 "/>
<path fill="none" stroke="black" d="M2045.11,-1900C2045.11,-1894 2051.11,-1888 2057.11,-1888"/>
<text text-anchor="middle" x="2127.61" y="-1959.4" font-family="Times Roman,serif" font-size="14.00">CodeEditor</text>
<polyline fill="none" stroke="black" points="2045.11,-1950 2210.11,-1950 "/>
<text text-anchor="start" x="2053.11" y="-1933.4" font-family="Times Roman,serif" font-size="14.00">id :integer</text>
<text text-anchor="start" x="2053.11" y="-1915.4" font-family="Times Roman,serif" font-size="14.00">created_at :datetime</text>
<text text-anchor="start" x="2053.11" y="-1897.4" font-family="Times Roman,serif" font-size="14.00">updated_at :datetime</text>
</g>
<!-- MethodParameter -->
<g id="node5" class="node"><title>MethodParameter</title>
<polyline fill="none" stroke="black" points="242.61,-28 412.61,-28 "/>
<path fill="none" stroke="black" d="M412.61,-28C418.61,-28 424.61,-34 424.61,-40"/>
<polyline fill="none" stroke="black" points="424.61,-40 424.61,-158 "/>
<path fill="none" stroke="black" d="M424.61,-158C424.61,-164 418.61,-170 412.61,-170"/>
<polyline fill="none" stroke="black" points="412.61,-170 242.61,-170 "/>
<path fill="none" stroke="black" d="M242.61,-170C236.61,-170 230.61,-164 230.61,-158"/>
<polyline fill="none" stroke="black" points="230.61,-158 230.61,-40 "/>
<path fill="none" stroke="black" d="M230.61,-40C230.61,-34 236.61,-28 242.61,-28"/>
<text text-anchor="middle" x="327.61" y="-153.4" font-family="Times Roman,serif" font-size="14.00">MethodParameter</text>
<polyline fill="none" stroke="black" points="230.61,-144 424.61,-144 "/>
<text text-anchor="start" x="238.61" y="-127.4" font-family="Times Roman,serif" font-size="14.00">id :integer</text>
<text text-anchor="start" x="238.61" y="-109.4" font-family="Times Roman,serif" font-size="14.00">parameter :string</text>
<text text-anchor="start" x="238.61" y="-91.4" font-family="Times Roman,serif" font-size="14.00">model_answer_id :integer</text>
<text text-anchor="start" x="238.61" y="-73.4" font-family="Times Roman,serif" font-size="14.00">staff_id :integer</text>
<text text-anchor="start" x="238.61" y="-55.4" font-family="Times Roman,serif" font-size="14.00">created_at :datetime</text>
<text text-anchor="start" x="238.61" y="-37.4" font-family="Times Roman,serif" font-size="14.00">updated_at :datetime</text>
</g>
<!-- TestCase -->
<g id="node6" class="node"><title>TestCase</title>
<polyline fill="none" stroke="black" points="1733.61,-237 1903.61,-237 "/>
<path fill="none" stroke="black" d="M1903.61,-237C1909.61,-237 1915.61,-243 1915.61,-249"/>
<polyline fill="none" stroke="black" points="1915.61,-249 1915.61,-403 "/>
<path fill="none" stroke="black" d="M1915.61,-403C1915.61,-409 1909.61,-415 1903.61,-415"/>
<polyline fill="none" stroke="black" points="1903.61,-415 1733.61,-415 "/>
<path fill="none" stroke="black" d="M1733.61,-415C1727.61,-415 1721.61,-409 1721.61,-403"/>
<polyline fill="none" stroke="black" points="1721.61,-403 1721.61,-249 "/>
<path fill="none" stroke="black" d="M1721.61,-249C1721.61,-243 1727.61,-237 1733.61,-237"/>
<text text-anchor="middle" x="1818.61" y="-398.4" font-family="Times Roman,serif" font-size="14.00">TestCase</text>
<polyline fill="none" stroke="black" points="1721.61,-389 1915.61,-389 "/>
<text text-anchor="start" x="1729.61" y="-372.4" font-family="Times Roman,serif" font-size="14.00">id :integer</text>
<text text-anchor="start" x="1729.61" y="-354.4" font-family="Times Roman,serif" font-size="14.00">input :string</text>
<text text-anchor="start" x="1729.61" y="-336.4" font-family="Times Roman,serif" font-size="14.00">output :string</text>
<text text-anchor="start" x="1729.61" y="-318.4" font-family="Times Roman,serif" font-size="14.00">model_answer_id :integer</text>
<text text-anchor="start" x="1729.61" y="-300.4" font-family="Times Roman,serif" font-size="14.00">staff_id :integer</text>
<text text-anchor="start" x="1729.61" y="-282.4" font-family="Times Roman,serif" font-size="14.00">problem_id :integer</text>
<text text-anchor="start" x="1729.61" y="-264.4" font-family="Times Roman,serif" font-size="14.00">created_at :datetime</text>
<text text-anchor="start" x="1729.61" y="-246.4" font-family="Times Roman,serif" font-size="14.00">updated_at :datetime</text>
</g>
<!-- TeachingAssistant -->
<g id="node7" class="node"><title>TeachingAssistant</title>
<polyline fill="none" stroke="black" points="1282.11,-1501 1427.11,-1501 "/>
<path fill="none" stroke="black" d="M1427.11,-1501C1433.11,-1501 1439.11,-1507 1439.11,-1513"/>
<polyline fill="none" stroke="black" points="1439.11,-1513 1439.11,-1739 "/>
<path fill="none" stroke="black" d="M1439.11,-1739C1439.11,-1745 1433.11,-1751 1427.11,-1751"/>
<polyline fill="none" stroke="black" points="1427.11,-1751 1282.11,-1751 "/>
<path fill="none" stroke="black" d="M1282.11,-1751C1276.11,-1751 1270.11,-1745 1270.11,-1739"/>
<polyline fill="none" stroke="black" points="1270.11,-1739 1270.11,-1513 "/>
<path fill="none" stroke="black" d="M1270.11,-1513C1270.11,-1507 1276.11,-1501 1282.11,-1501"/>
<text text-anchor="middle" x="1354.61" y="-1734.4" font-family="Times Roman,serif" font-size="14.00">TeachingAssistant</text>
<polyline fill="none" stroke="black" points="1270.11,-1725 1439.11,-1725 "/>
<text text-anchor="start" x="1278.11" y="-1708.4" font-family="Times Roman,serif" font-size="14.00">id :integer</text>
<text text-anchor="start" x="1278.11" y="-1690.4" font-family="Times Roman,serif" font-size="14.00">name :string</text>
<text text-anchor="start" x="1278.11" y="-1672.4" font-family="Times Roman,serif" font-size="14.00">email :string</text>
<text text-anchor="start" x="1278.11" y="-1654.4" font-family="Times Roman,serif" font-size="14.00">verified_type :boolean</text>
<text text-anchor="start" x="1278.11" y="-1636.4" font-family="Times Roman,serif" font-size="14.00">password :string</text>
<text text-anchor="start" x="1278.11" y="-1618.4" font-family="Times Roman,serif" font-size="14.00">dob :date</text>
<text text-anchor="start" x="1278.11" y="-1600.4" font-family="Times Roman,serif" font-size="14.00">age :integer</text>
<text text-anchor="start" x="1278.11" y="-1582.4" font-family="Times Roman,serif" font-size="14.00">profile_image :string</text>
<text text-anchor="start" x="1278.11" y="-1564.4" font-family="Times Roman,serif" font-size="14.00">gender :boolean</text>
<text text-anchor="start" x="1278.11" y="-1546.4" font-family="Times Roman,serif" font-size="14.00">type :string</text>
<text text-anchor="start" x="1278.11" y="-1528.4" font-family="Times Roman,serif" font-size="14.00">created_at :datetime</text>
<text text-anchor="start" x="1278.11" y="-1510.4" font-family="Times Roman,serif" font-size="14.00">updated_at :datetime</text>
</g>
<!-- TeachingAssistant&#45;&gt;MethodParameter -->
<g id="edge22" class="edge"><title>TeachingAssistant&#45;&gt;MethodParameter</title>
<path fill="none" stroke="#3a9cf9" d="M1261.62,-1623.17C1016.42,-1613.93 359.781,-1577.23 194.61,-1446 11.4326,-1300.46 76.6099,-1166.95 76.6099,-933 76.6099,-933 76.6099,-933 76.6099,-326 76.6099,-243.062 152.928,-182.569 221.399,-144.986"/>
<ellipse fill="none" stroke="#3a9cf9" cx="1265.82" cy="-1623.32" rx="4" ry="4"/>
<polygon fill="#3a9cf9" stroke="#3a9cf9" points="221.757,-144.794 232.696,-144.027 226.162,-142.428 230.567,-140.063 230.567,-140.063 230.567,-140.063 226.162,-142.428 228.438,-136.098 221.757,-144.794 221.757,-144.794"/>
</g>
<!-- TeachingAssistant&#45;&gt;TestCase -->
<g id="edge26" class="edge"><title>TeachingAssistant&#45;&gt;TestCase</title>
<path fill="none" stroke="#4b8b69" d="M1446.92,-1600.22C1521.68,-1574.18 1622.93,-1526.14 1675.61,-1446 1785.41,-1278.97 1811.02,-667.24 1816.9,-425.372"/>
<ellipse fill="none" stroke="#4b8b69" cx="1443.1" cy="-1601.52" rx="4.00001" ry="4.00001"/>
<polygon fill="#4b8b69" stroke="#4b8b69" points="1816.9,-425.178 1821.64,-415.288 1817.02,-420.18 1817.14,-415.181 1817.14,-415.181 1817.14,-415.181 1817.02,-420.18 1812.64,-415.075 1816.9,-425.178 1816.9,-425.178"/>
</g>
<!-- TeachingAssistant&#45;&gt;Reply -->
<g id="edge10" class="edge"><title>TeachingAssistant&#45;&gt;Reply</title>
<path fill="none" stroke="#f7c01b" d="M1261.98,-1608.91C1119.34,-1580.57 856.315,-1519.62 798.61,-1446 731.812,-1360.78 836.865,-1039.74 763.61,-960 728.908,-922.226 697.544,-960.26 649.61,-942 635.785,-936.734 635.312,-929.577 621.61,-924 584.635,-908.95 561.365,-934.693 533.61,-906 516.123,-887.922 496.639,-745.268 485.579,-652.035"/>
<ellipse fill="none" stroke="#f7c01b" cx="1266.01" cy="-1609.7" rx="4.00001" ry="4.00001"/>
<polygon fill="#f7c01b" stroke="#f7c01b" points="485.573,-651.98 488.874,-641.523 484.989,-647.015 484.405,-642.049 484.405,-642.049 484.405,-642.049 484.989,-647.015 479.935,-642.575 485.573,-651.98 485.573,-651.98"/>
</g>
<!-- Course -->
<g id="node12" class="node"><title>Course</title>
<polyline fill="none" stroke="black" points="1197.11,-1267 1338.11,-1267 "/>
<path fill="none" stroke="black" d="M1338.11,-1267C1344.11,-1267 1350.11,-1273 1350.11,-1279"/>
<polyline fill="none" stroke="black" points="1350.11,-1279 1350.11,-1433 "/>
<path fill="none" stroke="black" d="M1350.11,-1433C1350.11,-1439 1344.11,-1445 1338.11,-1445"/>
<polyline fill="none" stroke="black" points="1338.11,-1445 1197.11,-1445 "/>
<path fill="none" stroke="black" d="M1197.11,-1445C1191.11,-1445 1185.11,-1439 1185.11,-1433"/>
<polyline fill="none" stroke="black" points="1185.11,-1433 1185.11,-1279 "/>
<path fill="none" stroke="black" d="M1185.11,-1279C1185.11,-1273 1191.11,-1267 1197.11,-1267"/>
<text text-anchor="middle" x="1267.61" y="-1428.4" font-family="Times Roman,serif" font-size="14.00">Course</text>
<polyline fill="none" stroke="black" points="1185.11,-1419 1350.11,-1419 "/>
<text text-anchor="start" x="1193.11" y="-1402.4" font-family="Times Roman,serif" font-size="14.00">id :integer</text>
<text text-anchor="start" x="1193.11" y="-1384.4" font-family="Times Roman,serif" font-size="14.00">name :string</text>
<text text-anchor="start" x="1193.11" y="-1366.4" font-family="Times Roman,serif" font-size="14.00">code :string</text>
<text text-anchor="start" x="1193.11" y="-1348.4" font-family="Times Roman,serif" font-size="14.00">year :integer</text>
<text text-anchor="start" x="1193.11" y="-1330.4" font-family="Times Roman,serif" font-size="14.00">semester :integer</text>
<text text-anchor="start" x="1193.11" y="-1312.4" font-family="Times Roman,serif" font-size="14.00">description :text</text>
<text text-anchor="start" x="1193.11" y="-1294.4" font-family="Times Roman,serif" font-size="14.00">created_at :datetime</text>
<text text-anchor="start" x="1193.11" y="-1276.4" font-family="Times Roman,serif" font-size="14.00">updated_at :datetime</text>
</g>
<!-- TeachingAssistant&#45;&gt;Course -->
<g id="edge30" class="edge"><title>TeachingAssistant&#45;&gt;Course</title>
<path fill="none" stroke="#ca4874" d="M1316.25,-1491C1313.4,-1481.84 1310.5,-1472.77 1307.61,-1464 1306.59,-1460.91 1305.54,-1457.79 1304.47,-1454.63"/>
<polygon fill="#ca4874" stroke="#ca4874" points="1316.25,-1491.02 1314.9,-1501.9 1317.73,-1495.8 1319.2,-1500.58 1319.2,-1500.58 1319.2,-1500.58 1317.73,-1495.8 1323.5,-1499.25 1316.25,-1491.02 1316.25,-1491.02"/>
<polygon fill="#ca4874" stroke="#ca4874" points="1304.45,-1454.56 1305.44,-1443.64 1302.82,-1449.84 1301.19,-1445.11 1301.19,-1445.11 1301.19,-1445.11 1302.82,-1449.84 1296.93,-1446.58 1304.45,-1454.56 1304.45,-1454.56"/>
</g>
<!-- ModelAnswer -->
<g id="node13" class="node"><title>ModelAnswer</title>
<polyline fill="none" stroke="black" points="1551.11,-255 1692.11,-255 "/>
<path fill="none" stroke="black" d="M1692.11,-255C1698.11,-255 1704.11,-261 1704.11,-267"/>
<polyline fill="none" stroke="black" points="1704.11,-267 1704.11,-385 "/>
<path fill="none" stroke="black" d="M1704.11,-385C1704.11,-391 1698.11,-397 1692.11,-397"/>
<polyline fill="none" stroke="black" points="1692.11,-397 1551.11,-397 "/>
<path fill="none" stroke="black" d="M1551.11,-397C1545.11,-397 1539.11,-391 1539.11,-385"/>
<polyline fill="none" stroke="black" points="1539.11,-385 1539.11,-267 "/>
<path fill="none" stroke="black" d="M1539.11,-267C1539.11,-261 1545.11,-255 1551.11,-255"/>
<text text-anchor="middle" x="1621.61" y="-380.4" font-family="Times Roman,serif" font-size="14.00">ModelAnswer</text>
<polyline fill="none" stroke="black" points="1539.11,-371 1704.11,-371 "/>
<text text-anchor="start" x="1547.11" y="-354.4" font-family="Times Roman,serif" font-size="14.00">id :integer</text>
<text text-anchor="start" x="1547.11" y="-336.4" font-family="Times Roman,serif" font-size="14.00">answer :text</text>
<text text-anchor="start" x="1547.11" y="-318.4" font-family="Times Roman,serif" font-size="14.00">problem_id :integer</text>
<text text-anchor="start" x="1547.11" y="-300.4" font-family="Times Roman,serif" font-size="14.00">staff_id :integer</text>
<text text-anchor="start" x="1547.11" y="-282.4" font-family="Times Roman,serif" font-size="14.00">created_at :datetime</text>
<text text-anchor="start" x="1547.11" y="-264.4" font-family="Times Roman,serif" font-size="14.00">updated_at :datetime</text>
</g>
<!-- TeachingAssistant&#45;&gt;ModelAnswer -->
<g id="edge18" class="edge"><title>TeachingAssistant&#45;&gt;ModelAnswer</title>
<path fill="none" stroke="#3fdd29" d="M1359.99,-1492.78C1368,-1305 1383.54,-982.666 1396.61,-960 1403.81,-947.505 1413.32,-952.101 1423.61,-942 1437.51,-928.357 1441.59,-924.173 1448.61,-906 1521.57,-716.999 1423.39,-638.259 1507.61,-454 1512.93,-442.352 1527.56,-424.066 1544.64,-404.924"/>
<ellipse fill="none" stroke="#3fdd29" cx="1359.82" cy="-1496.79" rx="4" ry="4"/>
<polygon fill="#3fdd29" stroke="#3fdd29" points="1544.85,-404.69 1554.9,-400.285 1548.21,-400.979 1551.56,-397.269 1551.56,-397.269 1551.56,-397.269 1548.21,-400.979 1548.22,-394.252 1544.85,-404.69 1544.85,-404.69"/>
</g>
<!-- Track -->
<g id="node14" class="node"><title>Track</title>
<polyline fill="none" stroke="black" points="1600.11,-727 1741.11,-727 "/>
<path fill="none" stroke="black" d="M1741.11,-727C1747.11,-727 1753.11,-733 1753.11,-739"/>
<polyline fill="none" stroke="black" points="1753.11,-739 1753.11,-893 "/>
<path fill="none" stroke="black" d="M1753.11,-893C1753.11,-899 1747.11,-905 1741.11,-905"/>
<polyline fill="none" stroke="black" points="1741.11,-905 1600.11,-905 "/>
<path fill="none" stroke="black" d="M1600.11,-905C1594.11,-905 1588.11,-899 1588.11,-893"/>
<polyline fill="none" stroke="black" points="1588.11,-893 1588.11,-739 "/>
<path fill="none" stroke="black" d="M1588.11,-739C1588.11,-733 1594.11,-727 1600.11,-727"/>
<text text-anchor="middle" x="1670.61" y="-888.4" font-family="Times Roman,serif" font-size="14.00">Track</text>
<polyline fill="none" stroke="black" points="1588.11,-879 1753.11,-879 "/>
<text text-anchor="start" x="1596.11" y="-862.4" font-family="Times Roman,serif" font-size="14.00">id :integer</text>
<text text-anchor="start" x="1596.11" y="-844.4" font-family="Times Roman,serif" font-size="14.00">title :string</text>
<text text-anchor="start" x="1596.11" y="-826.4" font-family="Times Roman,serif" font-size="14.00">difficulty :integer</text>
<text text-anchor="start" x="1596.11" y="-808.4" font-family="Times Roman,serif" font-size="14.00">views_count :integer</text>
<text text-anchor="start" x="1596.11" y="-790.4" font-family="Times Roman,serif" font-size="14.00">topic_id :integer</text>
<text text-anchor="start" x="1596.11" y="-772.4" font-family="Times Roman,serif" font-size="14.00">staff_id :integer</text>
<text text-anchor="start" x="1596.11" y="-754.4" font-family="Times Roman,serif" font-size="14.00">created_at :datetime</text>
<text text-anchor="start" x="1596.11" y="-736.4" font-family="Times Roman,serif" font-size="14.00">updated_at :datetime</text>
</g>
<!-- TeachingAssistant&#45;&gt;Track -->
<g id="edge14" class="edge"><title>TeachingAssistant&#45;&gt;Track</title>
<path fill="none" stroke="#21a531" d="M1446.91,-1598.96C1504.26,-1577.08 1573.99,-1540.15 1611.61,-1482 1723.87,-1308.48 1708.52,-1054.17 1688.76,-915.388"/>
<ellipse fill="none" stroke="#21a531" cx="1443.01" cy="-1600.41" rx="4.00001" ry="4.00001"/>
<polygon fill="#21a531" stroke="#21a531" points="1688.71,-915.084 1691.72,-904.538 1687.99,-910.136 1687.27,-905.189 1687.27,-905.189 1687.27,-905.189 1687.99,-910.136 1682.82,-905.839 1688.71,-915.084 1688.71,-915.084"/>
</g>
<!-- TeachingAssistant&#45;&gt;Post -->
<g id="edge8" class="edge"><title>TeachingAssistant&#45;&gt;Post</title>
<path fill="none" stroke="#41df5e" d="M1261.8,-1620.2C1058.32,-1601.75 576.701,-1525.37 395.61,-1212 331.147,-1100.45 381.113,-1051.5 362.61,-924 361.769,-918.207 360.856,-912.247 359.901,-906.244"/>
<ellipse fill="none" stroke="#41df5e" cx="1265.82" cy="-1620.56" rx="4" ry="4"/>
<polygon fill="#41df5e" stroke="#41df5e" points="359.86,-905.994 362.699,-895.402 359.059,-901.058 358.257,-896.123 358.257,-896.123 358.257,-896.123 359.059,-901.058 353.815,-896.844 359.86,-905.994 359.86,-905.994"/>
</g>
<!-- MethodConstraint -->
<g id="node17" class="node"><title>MethodConstraint</title>
<polyline fill="none" stroke="black" points="1079.61,-28 1249.61,-28 "/>
<path fill="none" stroke="black" d="M1249.61,-28C1255.61,-28 1261.61,-34 1261.61,-40"/>
<polyline fill="none" stroke="black" points="1261.61,-40 1261.61,-158 "/>
<path fill="none" stroke="black" d="M1261.61,-158C1261.61,-164 1255.61,-170 1249.61,-170"/>
<polyline fill="none" stroke="black" points="1249.61,-170 1079.61,-170 "/>
<path fill="none" stroke="black" d="M1079.61,-170C1073.61,-170 1067.61,-164 1067.61,-158"/>
<polyline fill="none" stroke="black" points="1067.61,-158 1067.61,-40 "/>
<path fill="none" stroke="black" d="M1067.61,-40C1067.61,-34 1073.61,-28 1079.61,-28"/>
<text text-anchor="middle" x="1164.61" y="-153.4" font-family="Times Roman,serif" font-size="14.00">MethodConstraint</text>
<polyline fill="none" stroke="black" points="1067.61,-144 1261.61,-144 "/>
<text text-anchor="start" x="1075.61" y="-127.4" font-family="Times Roman,serif" font-size="14.00">id :integer</text>
<text text-anchor="start" x="1075.61" y="-109.4" font-family="Times Roman,serif" font-size="14.00">method_name :string</text>
<text text-anchor="start" x="1075.61" y="-91.4" font-family="Times Roman,serif" font-size="14.00">model_answer_id :integer</text>
<text text-anchor="start" x="1075.61" y="-73.4" font-family="Times Roman,serif" font-size="14.00">staff_id :integer</text>
<text text-anchor="start" x="1075.61" y="-55.4" font-family="Times Roman,serif" font-size="14.00">created_at :datetime</text>
<text text-anchor="start" x="1075.61" y="-37.4" font-family="Times Roman,serif" font-size="14.00">updated_at :datetime</text>
</g>
<!-- TeachingAssistant&#45;&gt;MethodConstraint -->
<g id="edge20" class="edge"><title>TeachingAssistant&#45;&gt;MethodConstraint</title>
<path fill="none" stroke="#c664ac" d="M1262,-1614.29C1058.42,-1587.54 578.49,-1518.61 432.61,-1446 293.138,-1376.58 235.129,-1354.26 171.61,-1212 28.8879,-892.358 117.152,-678.657 385.61,-454 592.427,-280.927 897.422,-174.852 1057.52,-127.75"/>
<ellipse fill="none" stroke="#c664ac" cx="1266.04" cy="-1614.82" rx="4.00001" ry="4.00001"/>
<polygon fill="#c664ac" stroke="#c664ac" points="1057.78,-127.673 1068.64,-129.188 1062.58,-126.271 1067.38,-124.869 1067.38,-124.869 1067.38,-124.869 1062.58,-126.271 1066.12,-120.549 1057.78,-127.673 1057.78,-127.673"/>
</g>
<!-- Problem -->
<g id="node22" class="node"><title>Problem</title>
<polyline fill="none" stroke="black" points="1528.61,-455 1700.61,-455 "/>
<path fill="none" stroke="black" d="M1700.61,-455C1706.61,-455 1712.61,-461 1712.61,-467"/>
<polyline fill="none" stroke="black" points="1712.61,-467 1712.61,-675 "/>
<path fill="none" stroke="black" d="M1712.61,-675C1712.61,-681 1706.61,-687 1700.61,-687"/>
<polyline fill="none" stroke="black" points="1700.61,-687 1528.61,-687 "/>
<path fill="none" stroke="black" d="M1528.61,-687C1522.61,-687 1516.61,-681 1516.61,-675"/>
<polyline fill="none" stroke="black" points="1516.61,-675 1516.61,-467 "/>
<path fill="none" stroke="black" d="M1516.61,-467C1516.61,-461 1522.61,-455 1528.61,-455"/>
<text text-anchor="middle" x="1614.61" y="-670.4" font-family="Times Roman,serif" font-size="14.00">Problem</text>
<polyline fill="none" stroke="black" points="1516.61,-661 1712.61,-661 "/>
<text text-anchor="start" x="1524.61" y="-644.4" font-family="Times Roman,serif" font-size="14.00">id :integer</text>
<text text-anchor="start" x="1524.61" y="-626.4" font-family="Times Roman,serif" font-size="14.00">title :string</text>
<text text-anchor="start" x="1524.61" y="-608.4" font-family="Times Roman,serif" font-size="14.00">description :text</text>
<text text-anchor="start" x="1524.61" y="-590.4" font-family="Times Roman,serif" font-size="14.00">success_attempts :integer</text>
<text text-anchor="start" x="1524.61" y="-572.4" font-family="Times Roman,serif" font-size="14.00">failure_attempts :integer</text>
<text text-anchor="start" x="1524.61" y="-554.4" font-family="Times Roman,serif" font-size="14.00">views_count :integer</text>
<text text-anchor="start" x="1524.61" y="-536.4" font-family="Times Roman,serif" font-size="14.00">time_limit :integer</text>
<text text-anchor="start" x="1524.61" y="-518.4" font-family="Times Roman,serif" font-size="14.00">track_id :integer</text>
<text text-anchor="start" x="1524.61" y="-500.4" font-family="Times Roman,serif" font-size="14.00">staff_id :integer</text>
<text text-anchor="start" x="1524.61" y="-482.4" font-family="Times Roman,serif" font-size="14.00">created_at :datetime</text>
<text text-anchor="start" x="1524.61" y="-464.4" font-family="Times Roman,serif" font-size="14.00">updated_at :datetime</text>
</g>
<!-- TeachingAssistant&#45;&gt;Problem -->
<g id="edge16" class="edge"><title>TeachingAssistant&#45;&gt;Problem</title>
<path fill="none" stroke="#8ac770" d="M1443.75,-1500.57C1494.15,-1421.8 1552.22,-1315.79 1578.61,-1212 1581.94,-1198.92 1578.1,-739.415 1579.61,-726 1580.66,-716.641 1582.06,-707.021 1583.68,-697.377"/>
<ellipse fill="none" stroke="#8ac770" cx="1441.37" cy="-1504.26" rx="4.00002" ry="4.00002"/>
<polygon fill="#8ac770" stroke="#8ac770" points="1583.72,-697.175 1589.89,-688.11 1584.59,-692.251 1585.46,-687.327 1585.46,-687.327 1585.46,-687.327 1584.59,-692.251 1581.03,-686.545 1583.72,-697.175 1583.72,-697.175"/>
</g>
<!-- TeachingAssistant&#45;&gt;TrackProgression -->
<g id="edge12" class="edge"><title>TeachingAssistant&#45;&gt;TrackProgression</title>
<path fill="none" stroke="#84fd67" d="M1262.98,-1573.92C1152.37,-1505.86 969.776,-1375.81 877.61,-1212 821.896,-1112.98 916.402,-1038.86 834.61,-960 791.035,-917.985 750.135,-975.335 699.61,-942 682.262,-930.554 668.352,-913.594 657.45,-895.801"/>
<ellipse fill="none" stroke="#84fd67" cx="1266.42" cy="-1576.03" rx="4.00002" ry="4.00002"/>
<polygon fill="#84fd67" stroke="#84fd67" points="657.369,-895.662 656.227,-884.756 654.854,-891.341 652.338,-887.02 652.338,-887.02 652.338,-887.02 654.854,-891.341 648.449,-889.284 657.369,-895.662 657.369,-895.662"/>
<text text-anchor="middle" x="940.61" y="-1235.4" font-family="Times Roman,serif" font-size="14.00">progressions</text>
</g>
<!-- VariableConstraint -->
<g id="node25" class="node"><title>VariableConstraint</title>
<polyline fill="none" stroke="black" points="1685.61,-19 1855.61,-19 "/>
<path fill="none" stroke="black" d="M1855.61,-19C1861.61,-19 1867.61,-25 1867.61,-31"/>
<polyline fill="none" stroke="black" points="1867.61,-31 1867.61,-167 "/>
<path fill="none" stroke="black" d="M1867.61,-167C1867.61,-173 1861.61,-179 1855.61,-179"/>
<polyline fill="none" stroke="black" points="1855.61,-179 1685.61,-179 "/>
<path fill="none" stroke="black" d="M1685.61,-179C1679.61,-179 1673.61,-173 1673.61,-167"/>
<polyline fill="none" stroke="black" points="1673.61,-167 1673.61,-31 "/>
<path fill="none" stroke="black" d="M1673.61,-31C1673.61,-25 1679.61,-19 1685.61,-19"/>
<text text-anchor="middle" x="1770.61" y="-162.4" font-family="Times Roman,serif" font-size="14.00">VariableConstraint</text>
<polyline fill="none" stroke="black" points="1673.61,-153 1867.61,-153 "/>
<text text-anchor="start" x="1681.61" y="-136.4" font-family="Times Roman,serif" font-size="14.00">id :integer</text>
<text text-anchor="start" x="1681.61" y="-118.4" font-family="Times Roman,serif" font-size="14.00">variable_name :string</text>
<text text-anchor="start" x="1681.61" y="-100.4" font-family="Times Roman,serif" font-size="14.00">type :string</text>
<text text-anchor="start" x="1681.61" y="-82.4" font-family="Times Roman,serif" font-size="14.00">model_answer_id :integer</text>
<text text-anchor="start" x="1681.61" y="-64.4" font-family="Times Roman,serif" font-size="14.00">staff_id :integer</text>
<text text-anchor="start" x="1681.61" y="-46.4" font-family="Times Roman,serif" font-size="14.00">created_at :datetime</text>
<text text-anchor="start" x="1681.61" y="-28.4" font-family="Times Roman,serif" font-size="14.00">updated_at :datetime</text>
</g>
<!-- TeachingAssistant&#45;&gt;VariableConstraint -->
<g id="edge24" class="edge"><title>TeachingAssistant&#45;&gt;VariableConstraint</title>
<path fill="none" stroke="#c443d6" d="M1447.37,-1602.65C1530.06,-1577.25 1648.8,-1528.78 1720.61,-1446 1796.17,-1358.91 1800.66,-1322.79 1832.61,-1212 1862.79,-1107.34 1969.21,-335.375 1924.61,-236 1913.45,-211.14 1895.31,-188.947 1875.32,-170.036"/>
<ellipse fill="none" stroke="#c443d6" cx="1443.31" cy="-1603.88" rx="4.00001" ry="4.00001"/>
<polygon fill="#c443d6" stroke="#c443d6" points="1875.25,-169.975 1870.92,-159.9 1871.56,-166.596 1867.88,-163.218 1867.88,-163.218 1867.88,-163.218 1871.56,-166.596 1864.84,-166.535 1875.25,-169.975 1875.25,-169.975"/>
</g>
<!-- Hint -->
<g id="node26" class="node"><title>Hint</title>
<polyline fill="none" stroke="black" points="1951.11,-1 2138.11,-1 "/>
<path fill="none" stroke="black" d="M2138.11,-1C2144.11,-1 2150.11,-7 2150.11,-13"/>
<polyline fill="none" stroke="black" points="2150.11,-13 2150.11,-185 "/>
<path fill="none" stroke="black" d="M2150.11,-185C2150.11,-191 2144.11,-197 2138.11,-197"/>
<polyline fill="none" stroke="black" points="2138.11,-197 1951.11,-197 "/>
<path fill="none" stroke="black" d="M1951.11,-197C1945.11,-197 1939.11,-191 1939.11,-185"/>
<polyline fill="none" stroke="black" points="1939.11,-185 1939.11,-13 "/>
<path fill="none" stroke="black" d="M1939.11,-13C1939.11,-7 1945.11,-1 1951.11,-1"/>
<text text-anchor="middle" x="2044.61" y="-180.4" font-family="Times Roman,serif" font-size="14.00">Hint</text>
<polyline fill="none" stroke="black" points="1939.11,-171 2150.11,-171 "/>
<text text-anchor="start" x="1947.11" y="-154.4" font-family="Times Roman,serif" font-size="14.00">id :integer</text>
<text text-anchor="start" x="1947.11" y="-136.4" font-family="Times Roman,serif" font-size="14.00">message :text</text>
<text text-anchor="start" x="1947.11" y="-118.4" font-family="Times Roman,serif" font-size="14.00">type :boolean</text>
<text text-anchor="start" x="1947.11" y="-100.4" font-family="Times Roman,serif" font-size="14.00">time :integer</text>
<text text-anchor="start" x="1947.11" y="-82.4" font-family="Times Roman,serif" font-size="14.00">submission_counter :integer</text>
<text text-anchor="start" x="1947.11" y="-64.4" font-family="Times Roman,serif" font-size="14.00">model_answer_id :integer</text>
<text text-anchor="start" x="1947.11" y="-46.4" font-family="Times Roman,serif" font-size="14.00">staff_id :integer</text>
<text text-anchor="start" x="1947.11" y="-28.4" font-family="Times Roman,serif" font-size="14.00">created_at :datetime</text>
<text text-anchor="start" x="1947.11" y="-10.4" font-family="Times Roman,serif" font-size="14.00">updated_at :datetime</text>
</g>
<!-- TeachingAssistant&#45;&gt;Hint -->
<g id="edge28" class="edge"><title>TeachingAssistant&#45;&gt;Hint</title>
<path fill="none" stroke="#ca05db" d="M1447.35,-1611.66C1619.38,-1579.24 1970.61,-1483.14 1970.61,-1239 1970.61,-1239 1970.61,-1239 1970.61,-707 1970.61,-530.916 2001.57,-328.233 2023.44,-207.041"/>
<ellipse fill="none" stroke="#ca05db" cx="1443.23" cy="-1612.43" rx="4.00001" ry="4.00001"/>
<polygon fill="#ca05db" stroke="#ca05db" points="2023.48,-206.854 2029.69,-197.82 2024.37,-201.935 2025.26,-197.015 2025.26,-197.015 2025.26,-197.015 2024.37,-201.935 2020.84,-196.21 2023.48,-206.854 2023.48,-206.854"/>
</g>
<!-- CompileError -->
<g id="node9" class="node"><title>CompileError</title>
<polyline fill="none" stroke="black" points="2239.11,-1888 2380.11,-1888 "/>
<path fill="none" stroke="black" d="M2380.11,-1888C2386.11,-1888 2392.11,-1894 2392.11,-1900"/>
<polyline fill="none" stroke="black" points="2392.11,-1900 2392.11,-1964 "/>
<path fill="none" stroke="black" d="M2392.11,-1964C2392.11,-1970 2386.11,-1976 2380.11,-1976"/>
<polyline fill="none" stroke="black" points="2380.11,-1976 2239.11,-1976 "/>
<path fill="none" stroke="black" d="M2239.11,-1976C2233.11,-1976 2227.11,-1970 2227.11,-1964"/>
<polyline fill="none" stroke="black" points="2227.11,-1964 2227.11,-1900 "/>
<path fill="none" stroke="black" d="M2227.11,-1900C2227.11,-1894 2233.11,-1888 2239.11,-1888"/>
<text text-anchor="middle" x="2309.61" y="-1959.4" font-family="Times Roman,serif" font-size="14.00">CompileError</text>
<polyline fill="none" stroke="black" points="2227.11,-1950 2392.11,-1950 "/>
<text text-anchor="start" x="2235.11" y="-1933.4" font-family="Times Roman,serif" font-size="14.00">id :integer</text>
<text text-anchor="start" x="2235.11" y="-1915.4" font-family="Times Roman,serif" font-size="14.00">created_at :datetime</text>
<text text-anchor="start" x="2235.11" y="-1897.4" font-family="Times Roman,serif" font-size="14.00">updated_at :datetime</text>
</g>
<!-- Lecturer -->
<g id="node10" class="node"><title>Lecturer</title>
<polyline fill="none" stroke="black" points="1689.11,-1807 1834.11,-1807 "/>
<path fill="none" stroke="black" d="M1834.11,-1807C1840.11,-1807 1846.11,-1813 1846.11,-1819"/>
<polyline fill="none" stroke="black" points="1846.11,-1819 1846.11,-2045 "/>
<path fill="none" stroke="black" d="M1846.11,-2045C1846.11,-2051 1840.11,-2057 1834.11,-2057"/>
<polyline fill="none" stroke="black" points="1834.11,-2057 1689.11,-2057 "/>
<path fill="none" stroke="black" d="M1689.11,-2057C1683.11,-2057 1677.11,-2051 1677.11,-2045"/>
<polyline fill="none" stroke="black" points="1677.11,-2045 1677.11,-1819 "/>
<path fill="none" stroke="black" d="M1677.11,-1819C1677.11,-1813 1683.11,-1807 1689.11,-1807"/>
<text text-anchor="middle" x="1761.61" y="-2040.4" font-family="Times Roman,serif" font-size="14.00">Lecturer</text>
<polyline fill="none" stroke="black" points="1677.11,-2031 1846.11,-2031 "/>
<text text-anchor="start" x="1685.11" y="-2014.4" font-family="Times Roman,serif" font-size="14.00">id :integer</text>
<text text-anchor="start" x="1685.11" y="-1996.4" font-family="Times Roman,serif" font-size="14.00">name :string</text>
<text text-anchor="start" x="1685.11" y="-1978.4" font-family="Times Roman,serif" font-size="14.00">email :string</text>
<text text-anchor="start" x="1685.11" y="-1960.4" font-family="Times Roman,serif" font-size="14.00">verified_type :boolean</text>
<text text-anchor="start" x="1685.11" y="-1942.4" font-family="Times Roman,serif" font-size="14.00">password :string</text>
<text text-anchor="start" x="1685.11" y="-1924.4" font-family="Times Roman,serif" font-size="14.00">dob :date</text>
<text text-anchor="start" x="1685.11" y="-1906.4" font-family="Times Roman,serif" font-size="14.00">age :integer</text>
<text text-anchor="start" x="1685.11" y="-1888.4" font-family="Times Roman,serif" font-size="14.00">profile_image :string</text>
<text text-anchor="start" x="1685.11" y="-1870.4" font-family="Times Roman,serif" font-size="14.00">gender :boolean</text>
<text text-anchor="start" x="1685.11" y="-1852.4" font-family="Times Roman,serif" font-size="14.00">type :string</text>
<text text-anchor="start" x="1685.11" y="-1834.4" font-family="Times Roman,serif" font-size="14.00">created_at :datetime</text>
<text text-anchor="start" x="1685.11" y="-1816.4" font-family="Times Roman,serif" font-size="14.00">updated_at :datetime</text>
</g>
<!-- Lecturer&#45;&gt;MethodParameter -->
<g id="edge46" class="edge"><title>Lecturer&#45;&gt;MethodParameter</title>
<path fill="none" stroke="#d84a91" d="M1668.84,-1928.1C1424.75,-1916.86 744.941,-1879.17 186.61,-1788 118.093,-1776.81 84.4555,-1800.32 34.6099,-1752 -7.03532,-1711.63 0.60989,-1684 0.60989,-1626 0.60989,-1626 0.60989,-1626 0.60989,-326 0.60989,-216.759 125.283,-155.876 220.667,-125.282"/>
<ellipse fill="none" stroke="#d84a91" cx="1673" cy="-1928.29" rx="4" ry="4"/>
<polygon fill="#d84a91" stroke="#d84a91" points="220.842,-125.227 231.73,-126.53 225.613,-123.732 230.384,-122.236 230.384,-122.236 230.384,-122.236 225.613,-123.732 229.039,-117.942 220.842,-125.227 220.842,-125.227"/>
</g>
<!-- Lecturer&#45;&gt;TestCase -->
<g id="edge50" class="edge"><title>Lecturer&#45;&gt;TestCase</title>
<path fill="none" stroke="#7eb46f" d="M1852.47,-1807.58C1853.18,-1807.05 1853.9,-1806.52 1854.61,-1806 1875.08,-1791.13 1892.35,-1807.38 1908.61,-1788 1955.39,-1732.24 1932.61,-1698.79 1932.61,-1626 1932.61,-1626 1932.61,-1626 1932.61,-707 1932.61,-608.014 1896.86,-500.403 1865.39,-424.874"/>
<ellipse fill="none" stroke="#7eb46f" cx="1849.32" cy="-1810.07" rx="4.00002" ry="4.00002"/>
<polygon fill="#7eb46f" stroke="#7eb46f" points="1865.27,-424.576 1865.53,-413.614 1863.33,-419.969 1861.38,-415.362 1861.38,-415.362 1861.38,-415.362 1863.33,-419.969 1857.24,-417.11 1865.27,-424.576 1865.27,-424.576"/>
</g>
<!-- Lecturer&#45;&gt;TeachingAssistant -->
<g id="edge56" class="edge"><title>Lecturer&#45;&gt;TeachingAssistant</title>
<path fill="none" stroke="#321ba7" d="M1668.49,-1861.99C1602.33,-1812.25 1513.84,-1745.72 1447.69,-1695.98"/>
<polygon fill="#321ba7" stroke="#321ba7" points="1668.79,-1862.22 1674.08,-1871.82 1672.79,-1865.22 1676.78,-1868.22 1676.78,-1868.22 1676.78,-1868.22 1672.79,-1865.22 1679.49,-1864.63 1668.79,-1862.22 1668.79,-1862.22"/>
<polygon fill="#321ba7" stroke="#321ba7" points="1447.32,-1695.7 1442.03,-1686.1 1443.32,-1692.7 1439.33,-1689.69 1439.33,-1689.69 1439.33,-1689.69 1443.32,-1692.7 1436.62,-1693.29 1447.32,-1695.7 1447.32,-1695.7"/>
<text text-anchor="middle" x="1603.11" y="-1775.4" font-family="Times Roman,serif" font-size="14.00">worked_with</text>
</g>
<!-- Lecturer&#45;&gt;Reply -->
<g id="edge34" class="edge"><title>Lecturer&#45;&gt;Reply</title>
<path fill="none" stroke="#669e37" d="M1668.74,-1930.38C1366.67,-1923.76 416.2,-1892.03 148.61,-1752 82.7452,-1717.53 38.6099,-1700.34 38.6099,-1626 38.6099,-1626 38.6099,-1626 38.6099,-1239 38.6099,-1000.3 47.1228,-911.287 197.61,-726 204.411,-717.626 306.205,-662.07 384.889,-619.842"/>
<ellipse fill="none" stroke="#669e37" cx="1673.05" cy="-1930.47" rx="4" ry="4"/>
<polygon fill="#669e37" stroke="#669e37" points="385.064,-619.748 396.003,-618.988 389.47,-617.385 393.877,-615.022 393.877,-615.022 393.877,-615.022 389.47,-617.385 391.75,-611.056 385.064,-619.748 385.064,-619.748"/>
</g>
<!-- Lecturer&#45;&gt;Course -->
<g id="edge54" class="edge"><title>Lecturer&#45;&gt;Course</title>
<path fill="none" stroke="#1f9550" d="M1679.03,-1798.33C1620.37,-1708.83 1536.49,-1591.16 1447.61,-1500 1420.55,-1472.25 1388.21,-1444.89 1358.45,-1421.59"/>
<polygon fill="#1f9550" stroke="#1f9550" points="1679.16,-1798.53 1680.86,-1809.36 1681.9,-1802.71 1684.63,-1806.9 1684.63,-1806.9 1684.63,-1806.9 1681.9,-1802.71 1688.4,-1804.44 1679.16,-1798.53 1679.16,-1798.53"/>
<polygon fill="#1f9550" stroke="#1f9550" points="1358.43,-1421.58 1353.3,-1411.89 1354.48,-1418.51 1350.54,-1415.44 1350.54,-1415.44 1350.54,-1415.44 1354.48,-1418.51 1347.78,-1419 1358.43,-1421.58 1358.43,-1421.58"/>
</g>
<!-- Lecturer&#45;&gt;ModelAnswer -->
<g id="edge42" class="edge"><title>Lecturer&#45;&gt;ModelAnswer</title>
<path fill="none" stroke="#d65481" d="M1815.55,-1798.57C1820.08,-1783.08 1823.95,-1767.33 1826.61,-1752 1904.67,-1302.61 1902.75,-1171.21 1803.61,-726 1776.16,-602.756 1779.69,-566.111 1721.61,-454 1713.07,-437.521 1702.32,-421.055 1691.04,-405.685"/>
<ellipse fill="none" stroke="#d65481" cx="1814.27" cy="-1802.82" rx="4.00001" ry="4.00001"/>
<polygon fill="#d65481" stroke="#d65481" points="1690.73,-405.271 1688.34,-394.569 1687.74,-401.269 1684.74,-397.266 1684.74,-397.266 1684.74,-397.266 1687.74,-401.269 1681.14,-399.963 1690.73,-405.271 1690.73,-405.271"/>
</g>
<!-- Lecturer&#45;&gt;Track -->
<g id="edge38" class="edge"><title>Lecturer&#45;&gt;Track</title>
<path fill="none" stroke="#43d747" d="M1761.96,-1798.44C1760.85,-1610.48 1752.88,-1257.59 1712.61,-960 1710.62,-945.287 1707.43,-929.986 1703.68,-915.088"/>
<ellipse fill="none" stroke="#43d747" cx="1761.99" cy="-1802.71" rx="4" ry="4"/>
<polygon fill="#43d747" stroke="#43d747" points="1703.67,-915.041 1705.49,-904.228 1702.4,-910.203 1701.14,-905.366 1701.14,-905.366 1701.14,-905.366 1702.4,-910.203 1696.79,-906.503 1703.67,-915.041 1703.67,-915.041"/>
</g>
<!-- Lecturer&#45;&gt;Post -->
<g id="edge32" class="edge"><title>Lecturer&#45;&gt;Post</title>
<path fill="none" stroke="#aace35" d="M1668.91,-1924.29C1326.48,-1894.59 152.61,-1781.44 152.61,-1626 152.61,-1626 152.61,-1626 152.61,-1239 152.61,-1114.71 115.224,-1070.76 171.61,-960 185.56,-932.598 207.266,-908.401 230.617,-888.038"/>
<ellipse fill="none" stroke="#aace35" cx="1673.1" cy="-1924.65" rx="4" ry="4"/>
<polygon fill="#aace35" stroke="#aace35" points="230.624,-888.033 241.16,-884.994 234.436,-884.798 238.248,-881.563 238.248,-881.563 238.248,-881.563 234.436,-884.798 235.337,-878.131 230.624,-888.033 230.624,-888.033"/>
</g>
<!-- Topic -->
<g id="node16" class="node"><title>Topic</title>
<polyline fill="none" stroke="black" points="1417.11,-997 1558.11,-997 "/>
<path fill="none" stroke="black" d="M1558.11,-997C1564.11,-997 1570.11,-1003 1570.11,-1009"/>
<polyline fill="none" stroke="black" points="1570.11,-1009 1570.11,-1163 "/>
<path fill="none" stroke="black" d="M1570.11,-1163C1570.11,-1169 1564.11,-1175 1558.11,-1175"/>
<polyline fill="none" stroke="black" points="1558.11,-1175 1417.11,-1175 "/>
<path fill="none" stroke="black" d="M1417.11,-1175C1411.11,-1175 1405.11,-1169 1405.11,-1163"/>
<polyline fill="none" stroke="black" points="1405.11,-1163 1405.11,-1009 "/>
<path fill="none" stroke="black" d="M1405.11,-1009C1405.11,-1003 1411.11,-997 1417.11,-997"/>
<text text-anchor="middle" x="1487.61" y="-1158.4" font-family="Times Roman,serif" font-size="14.00">Topic</text>
<polyline fill="none" stroke="black" points="1405.11,-1149 1570.11,-1149 "/>
<text text-anchor="start" x="1413.11" y="-1132.4" font-family="Times Roman,serif" font-size="14.00">id :integer</text>
<text text-anchor="start" x="1413.11" y="-1114.4" font-family="Times Roman,serif" font-size="14.00">title :string</text>
<text text-anchor="start" x="1413.11" y="-1096.4" font-family="Times Roman,serif" font-size="14.00">description :text</text>
<text text-anchor="start" x="1413.11" y="-1078.4" font-family="Times Roman,serif" font-size="14.00">order_factor :integer</text>
<text text-anchor="start" x="1413.11" y="-1060.4" font-family="Times Roman,serif" font-size="14.00">course_id :integer</text>
<text text-anchor="start" x="1413.11" y="-1042.4" font-family="Times Roman,serif" font-size="14.00">lecturer_id :integer</text>
<text text-anchor="start" x="1413.11" y="-1024.4" font-family="Times Roman,serif" font-size="14.00">created_at :datetime</text>
<text text-anchor="start" x="1413.11" y="-1006.4" font-family="Times Roman,serif" font-size="14.00">updated_at :datetime</text>
</g>
<!-- Lecturer&#45;&gt;Topic -->
<g id="edge58" class="edge"><title>Lecturer&#45;&gt;Topic</title>
<path fill="none" stroke="#97e823" d="M1718.55,-1799.03C1663.36,-1628.66 1568.97,-1337.2 1519.69,-1185.05"/>
<ellipse fill="none" stroke="#97e823" cx="1719.8" cy="-1802.91" rx="4.00001" ry="4.00001"/>
<polygon fill="#97e823" stroke="#97e823" points="1519.59,-1184.75 1520.79,-1173.85 1518.05,-1179.99 1516.51,-1175.23 1516.51,-1175.23 1516.51,-1175.23 1518.05,-1179.99 1512.23,-1176.62 1519.59,-1184.75 1519.59,-1184.75"/>
</g>
<!-- Lecturer&#45;&gt;MethodConstraint -->
<g id="edge44" class="edge"><title>Lecturer&#45;&gt;MethodConstraint</title>
<path fill="none" stroke="#d3514e" d="M1852.76,-1807.25C1853.37,-1806.83 1853.99,-1806.41 1854.61,-1806 1882.8,-1787.26 1901.69,-1808.52 1928.61,-1788 1959.47,-1764.48 2008.61,-1708.18 2008.61,-1626 2008.61,-1626 2008.61,-1626 2008.61,-707 2008.61,-600.682 2000.96,-309.99 1924.61,-236 1882.68,-195.363 1722.16,-207.896 1664.61,-198 1528.73,-174.633 1373.03,-143.036 1271.98,-121.884"/>
<ellipse fill="none" stroke="#d3514e" cx="1849.52" cy="-1809.62" rx="4.00002" ry="4.00002"/>
<polygon fill="#d3514e" stroke="#d3514e" points="1271.85,-121.858 1262.99,-115.402 1266.96,-120.832 1262.06,-119.806 1262.06,-119.806 1262.06,-119.806 1266.96,-120.832 1261.14,-124.211 1271.85,-121.858 1271.85,-121.858"/>
</g>
<!-- Lecturer&#45;&gt;Problem -->
<g id="edge40" class="edge"><title>Lecturer&#45;&gt;Problem</title>
<path fill="none" stroke="#740743" d="M1797.44,-1798.67C1808.87,-1745.38 1818.61,-1683.18 1818.61,-1626 1818.61,-1626 1818.61,-1626 1818.61,-933 1818.61,-837.576 1808.51,-809.103 1761.61,-726 1754.6,-713.577 1738.53,-694.623 1719.47,-674.185"/>
<ellipse fill="none" stroke="#740743" cx="1796.52" cy="-1802.89" rx="4.00001" ry="4.00001"/>
<polygon fill="#740743" stroke="#740743" points="1719.47,-674.184 1715.89,-663.818 1716.04,-670.543 1712.62,-666.902 1712.62,-666.902 1712.62,-666.902 1716.04,-670.543 1709.34,-669.986 1719.47,-674.184 1719.47,-674.184"/>
</g>
<!-- Lecturer&#45;&gt;TrackProgression -->
<g id="edge36" class="edge"><title>Lecturer&#45;&gt;TrackProgression</title>
<path fill="none" stroke="#b86329" d="M1668.62,-1917.62C1468.78,-1881.03 1001.95,-1763.7 822.61,-1446 769.404,-1351.75 863.695,-1039.83 790.61,-960 755.381,-921.518 715.391,-974.541 674.61,-942 660.097,-930.42 649.781,-914.011 642.453,-896.85"/>
<ellipse fill="none" stroke="#b86329" cx="1672.84" cy="-1918.38" rx="4.00001" ry="4.00001"/>
<polygon fill="#b86329" stroke="#b86329" points="642.343,-896.569 642.869,-885.616 640.512,-891.917 638.682,-887.264 638.682,-887.264 638.682,-887.264 640.512,-891.917 634.494,-888.911 642.343,-896.569 642.343,-896.569"/>
<text text-anchor="middle" x="865.61" y="-1352.4" font-family="Times Roman,serif" font-size="14.00">progressions</text>
</g>
<!-- Lecturer&#45;&gt;VariableConstraint -->
<g id="edge48" class="edge"><title>Lecturer&#45;&gt;VariableConstraint</title>
<path fill="none" stroke="#010db4" d="M1853.29,-1806.77C1853.73,-1806.51 1854.17,-1806.25 1854.61,-1806 1887.18,-1787.32 1995.53,-1814.01 2022.61,-1788 2075.1,-1737.58 2046.61,-1698.79 2046.61,-1626 2046.61,-1626 2046.61,-1626 2046.61,-707 2046.61,-496.443 2111.44,-411.834 1995.61,-236 1977.2,-208.055 1959.28,-215.25 1930.61,-198 1913.05,-187.437 1894.49,-176.105 1876.47,-165.017"/>
<ellipse fill="none" stroke="#010db4" cx="1849.67" cy="-1809.08" rx="4.00002" ry="4.00002"/>
<polygon fill="#010db4" stroke="#010db4" points="1876.19,-164.844 1870.04,-155.766 1871.93,-162.22 1867.67,-159.597 1867.67,-159.597 1867.67,-159.597 1871.93,-162.22 1865.31,-163.428 1876.19,-164.844 1876.19,-164.844"/>
</g>
<!-- Lecturer&#45;&gt;Hint -->
<g id="edge52" class="edge"><title>Lecturer&#45;&gt;Hint</title>
<path fill="none" stroke="#4cc036" d="M1853.28,-1806.76C1853.72,-1806.51 1854.17,-1806.25 1854.61,-1806 1928.05,-1764.44 1973,-1834.19 2043.61,-1788 2083.39,-1761.97 2095.61,-1669.06 2095.61,-1626 2095.61,-1626 2095.61,-1626 2095.61,-326 2095.61,-286.604 2088.21,-244.277 2079.04,-206.971"/>
<ellipse fill="none" stroke="#4cc036" cx="1849.66" cy="-1809.05" rx="4.00002" ry="4.00002"/>
<polygon fill="#4cc036" stroke="#4cc036" points="2079,-206.791 2080.91,-195.993 2077.77,-201.943 2076.55,-197.095 2076.55,-197.095 2076.55,-197.095 2077.77,-201.943 2072.18,-198.198 2079,-206.791 2079,-206.791"/>
</g>
<!-- DiscussionBoard -->
<g id="node11" class="node"><title>DiscussionBoard</title>
<polyline fill="none" stroke="black" points="416.11,-1015 557.11,-1015 "/>
<path fill="none" stroke="black" d="M557.11,-1015C563.11,-1015 569.11,-1021 569.11,-1027"/>
<polyline fill="none" stroke="black" points="569.11,-1027 569.11,-1145 "/>
<path fill="none" stroke="black" d="M569.11,-1145C569.11,-1151 563.11,-1157 557.11,-1157"/>
<polyline fill="none" stroke="black" points="557.11,-1157 416.11,-1157 "/>
<path fill="none" stroke="black" d="M416.11,-1157C410.11,-1157 404.11,-1151 404.11,-1145"/>
<polyline fill="none" stroke="black" points="404.11,-1145 404.11,-1027 "/>
<path fill="none" stroke="black" d="M404.11,-1027C404.11,-1021 410.11,-1015 416.11,-1015"/>
<text text-anchor="middle" x="486.61" y="-1140.4" font-family="Times Roman,serif" font-size="14.00">DiscussionBoard</text>
<polyline fill="none" stroke="black" points="404.11,-1131 569.11,-1131 "/>
<text text-anchor="start" x="412.11" y="-1114.4" font-family="Times Roman,serif" font-size="14.00">id :integer</text>
<text text-anchor="start" x="412.11" y="-1096.4" font-family="Times Roman,serif" font-size="14.00">title :string</text>
<text text-anchor="start" x="412.11" y="-1078.4" font-family="Times Roman,serif" font-size="14.00">activated :boolean</text>
<text text-anchor="start" x="412.11" y="-1060.4" font-family="Times Roman,serif" font-size="14.00">course_id :integer</text>
<text text-anchor="start" x="412.11" y="-1042.4" font-family="Times Roman,serif" font-size="14.00">created_at :datetime</text>
<text text-anchor="start" x="412.11" y="-1024.4" font-family="Times Roman,serif" font-size="14.00">updated_at :datetime</text>
</g>
<!-- DiscussionBoard&#45;&gt;Post -->
<g id="edge60" class="edge"><title>DiscussionBoard&#45;&gt;Post</title>
<path fill="none" stroke="#58894c" d="M444.956,-1007.35C428.052,-975.435 408.434,-938.395 390.987,-905.454"/>
<ellipse fill="none" stroke="#58894c" cx="446.979" cy="-1011.17" rx="4.00002" ry="4.00002"/>
<polygon fill="#58894c" stroke="#58894c" points="390.808,-905.116 390.105,-894.172 388.468,-900.697 386.128,-896.279 386.128,-896.279 386.128,-896.279 388.468,-900.697 382.151,-898.385 390.808,-905.116 390.808,-905.116"/>
</g>
<!-- Course&#45;&gt;TeachingAssistant -->
<g id="edge62" class="edge"><title>Course&#45;&gt;TeachingAssistant</title>
<path fill="none" stroke="#d81f7d" d="M1272.5,-1455.23C1274.08,-1464.37 1276.08,-1473.41 1278.61,-1482 1279.5,-1485.02 1280.46,-1488.05 1281.47,-1491.09"/>
<polygon fill="#d81f7d" stroke="#d81f7d" points="1272.49,-1455.17 1275.39,-1444.59 1271.72,-1450.23 1270.95,-1445.29 1270.95,-1445.29 1270.95,-1445.29 1271.72,-1450.23 1266.5,-1445.98 1272.49,-1455.17 1272.49,-1455.17"/>
<polygon fill="#d81f7d" stroke="#d81f7d" points="1281.56,-1491.35 1280.66,-1502.28 1283.23,-1496.06 1284.9,-1500.78 1284.9,-1500.78 1284.9,-1500.78 1283.23,-1496.06 1289.15,-1499.28 1281.56,-1491.35 1281.56,-1491.35"/>
<text text-anchor="middle" x="1291.11" y="-1469.4" font-family="Times Roman,serif" font-size="14.00">TAs</text>
</g>
<!-- Course&#45;&gt;DiscussionBoard -->
<g id="edge66" class="edge"><title>Course&#45;&gt;DiscussionBoard</title>
<path fill="none" stroke="#c85712" d="M1177.84,-1305.78C1123.42,-1278.01 1051.58,-1245.98 983.61,-1230 939.653,-1219.66 617.349,-1233.44 577.61,-1212 557.095,-1200.93 540.062,-1182.98 526.499,-1164.06"/>
<ellipse fill="none" stroke="#c85712" cx="1181.5" cy="-1307.66" rx="4.00002" ry="4.00002"/>
<ellipse fill="#c85712" stroke="#c85712" cx="523.933" cy="-1160.35" rx="4.00002" ry="4.00002"/>
</g>
<!-- Course&#45;&gt;Topic -->
<g id="edge68" class="edge"><title>Course&#45;&gt;Topic</title>
<path fill="none" stroke="#ee458f" d="M1345.36,-1260.58C1365.91,-1235.36 1388.1,-1208.13 1408.7,-1182.84"/>
<ellipse fill="none" stroke="#ee458f" cx="1342.78" cy="-1263.74" rx="4.00002" ry="4.00002"/>
<polygon fill="#ee458f" stroke="#ee458f" points="1408.72,-1182.82 1418.53,-1177.91 1411.88,-1178.94 1415.04,-1175.06 1415.04,-1175.06 1415.04,-1175.06 1411.88,-1178.94 1411.55,-1172.22 1408.72,-1182.82 1408.72,-1182.82"/>
</g>
<!-- Student -->
<g id="node18" class="node"><title>Student</title>
<polyline fill="none" stroke="black" points="898.11,-961 1043.11,-961 "/>
<path fill="none" stroke="black" d="M1043.11,-961C1049.11,-961 1055.11,-967 1055.11,-973"/>
<polyline fill="none" stroke="black" points="1055.11,-973 1055.11,-1199 "/>
<path fill="none" stroke="black" d="M1055.11,-1199C1055.11,-1205 1049.11,-1211 1043.11,-1211"/>
<polyline fill="none" stroke="black" points="1043.11,-1211 898.11,-1211 "/>
<path fill="none" stroke="black" d="M898.11,-1211C892.11,-1211 886.11,-1205 886.11,-1199"/>
<polyline fill="none" stroke="black" points="886.11,-1199 886.11,-973 "/>
<path fill="none" stroke="black" d="M886.11,-973C886.11,-967 892.11,-961 898.11,-961"/>
<text text-anchor="middle" x="970.61" y="-1194.4" font-family="Times Roman,serif" font-size="14.00">Student</text>
<polyline fill="none" stroke="black" points="886.11,-1185 1055.11,-1185 "/>
<text text-anchor="start" x="894.11" y="-1168.4" font-family="Times Roman,serif" font-size="14.00">id :integer</text>
<text text-anchor="start" x="894.11" y="-1150.4" font-family="Times Roman,serif" font-size="14.00">name :string</text>
<text text-anchor="start" x="894.11" y="-1132.4" font-family="Times Roman,serif" font-size="14.00">email :string</text>
<text text-anchor="start" x="894.11" y="-1114.4" font-family="Times Roman,serif" font-size="14.00">verified_type :boolean</text>
<text text-anchor="start" x="894.11" y="-1096.4" font-family="Times Roman,serif" font-size="14.00">password :string</text>
<text text-anchor="start" x="894.11" y="-1078.4" font-family="Times Roman,serif" font-size="14.00">dob :date</text>
<text text-anchor="start" x="894.11" y="-1060.4" font-family="Times Roman,serif" font-size="14.00">age :integer</text>
<text text-anchor="start" x="894.11" y="-1042.4" font-family="Times Roman,serif" font-size="14.00">profile_image :string</text>
<text text-anchor="start" x="894.11" y="-1024.4" font-family="Times Roman,serif" font-size="14.00">gender :boolean</text>
<text text-anchor="start" x="894.11" y="-1006.4" font-family="Times Roman,serif" font-size="14.00">type :string</text>
<text text-anchor="start" x="894.11" y="-988.4" font-family="Times Roman,serif" font-size="14.00">created_at :datetime</text>
<text text-anchor="start" x="894.11" y="-970.4" font-family="Times Roman,serif" font-size="14.00">updated_at :datetime</text>
</g>
<!-- Course&#45;&gt;Student -->
<g id="edge64" class="edge"><title>Course&#45;&gt;Student</title>
<path fill="none" stroke="#0daba5" d="M1179.72,-1259.31C1169.76,-1249.22 1159.6,-1239.27 1149.61,-1230 1122.61,-1204.96 1091.81,-1179.25 1063.45,-1156.62"/>
<polygon fill="#0daba5" stroke="#0daba5" points="1179.94,-1259.53 1183.72,-1269.83 1183.44,-1263.11 1186.93,-1266.68 1186.93,-1266.68 1186.93,-1266.68 1183.44,-1263.11 1190.15,-1263.54 1179.94,-1259.53 1179.94,-1259.53"/>
<polygon fill="#0daba5" stroke="#0daba5" points="1063.36,-1156.54 1058.33,-1146.79 1059.44,-1153.43 1055.53,-1150.32 1055.53,-1150.32 1055.53,-1150.32 1059.44,-1153.43 1052.73,-1153.84 1063.36,-1156.54 1063.36,-1156.54"/>
</g>
<!-- ModelAnswer&#45;&gt;MethodParameter -->
<g id="edge72" class="edge"><title>ModelAnswer&#45;&gt;MethodParameter</title>
<path fill="none" stroke="#649d33" d="M1553.73,-249.745C1546.39,-244.407 1538.65,-239.689 1530.61,-236 1482.79,-214.062 1110.92,-203.644 1058.61,-198 836.188,-174.003 576.948,-136.66 434.697,-115.357"/>
<ellipse fill="none" stroke="#649d33" cx="1557.18" cy="-252.38" rx="4.00002" ry="4.00002"/>
<polygon fill="#649d33" stroke="#649d33" points="434.549,-115.335 425.327,-109.401 429.604,-114.593 424.66,-113.852 424.66,-113.852 424.66,-113.852 429.604,-114.593 423.992,-118.302 434.549,-115.335 434.549,-115.335"/>
</g>
<!-- ModelAnswer&#45;&gt;MethodConstraint -->
<g id="edge70" class="edge"><title>ModelAnswer&#45;&gt;MethodConstraint</title>
<path fill="none" stroke="#0bd58b" d="M1551.8,-249.556C1545.01,-244.463 1537.91,-239.842 1530.61,-236 1492.97,-216.186 1477.24,-230.603 1436.61,-218 1380.42,-200.568 1320.26,-175.023 1270.84,-152.065"/>
<ellipse fill="none" stroke="#0bd58b" cx="1555.35" cy="-252.329" rx="4.00002" ry="4.00002"/>
<polygon fill="#0bd58b" stroke="#0bd58b" points="1270.8,-152.046 1263.65,-143.735 1266.27,-149.929 1261.74,-147.811 1261.74,-147.811 1261.74,-147.811 1266.27,-149.929 1259.84,-151.887 1270.8,-152.046 1270.8,-152.046"/>
</g>
<!-- ModelAnswer&#45;&gt;VariableConstraint -->
<g id="edge74" class="edge"><title>ModelAnswer&#45;&gt;VariableConstraint</title>
<path fill="none" stroke="#e5bfed" d="M1672.83,-247.96C1685.62,-228.482 1699.42,-207.457 1712.51,-187.513"/>
<ellipse fill="none" stroke="#e5bfed" cx="1670.54" cy="-251.455" rx="4.00002" ry="4.00002"/>
<polygon fill="#e5bfed" stroke="#e5bfed" points="1712.58,-187.4 1721.83,-181.51 1715.33,-183.22 1718.07,-179.04 1718.07,-179.04 1718.07,-179.04 1715.33,-183.22 1714.31,-176.571 1712.58,-187.4 1712.58,-187.4"/>
</g>
<!-- ModelAnswer&#45;&gt;Hint -->
<g id="edge76" class="edge"><title>ModelAnswer&#45;&gt;Hint</title>
<path fill="none" stroke="#57b03d" d="M1691.79,-249.706C1698.48,-244.607 1705.46,-239.942 1712.61,-236 1778.13,-199.881 1807.13,-225.759 1876.61,-198 1894.41,-190.887 1912.56,-182.077 1930.03,-172.668"/>
<ellipse fill="none" stroke="#57b03d" cx="1688.32" cy="-252.455" rx="4.00002" ry="4.00002"/>
<polygon fill="#57b03d" stroke="#57b03d" points="1930.33,-172.505 1941.26,-171.646 1934.71,-170.102 1939.1,-167.699 1939.1,-167.699 1939.1,-167.699 1934.71,-170.102 1936.93,-163.753 1930.33,-172.505 1930.33,-172.505"/>
</g>
<!-- Track&#45;&gt;Problem -->
<g id="edge78" class="edge"><title>Track&#45;&gt;Problem</title>
<path fill="none" stroke="#0c4501" d="M1648.43,-718.959C1646.79,-711.809 1645.13,-704.538 1643.47,-697.249"/>
<ellipse fill="none" stroke="#0c4501" cx="1649.34" cy="-722.957" rx="4.00001" ry="4.00001"/>
<polygon fill="#0c4501" stroke="#0c4501" points="1643.42,-697.057 1645.58,-686.306 1642.31,-692.183 1641.19,-687.309 1641.19,-687.309 1641.19,-687.309 1642.31,-692.183 1636.81,-688.311 1643.42,-697.057 1643.42,-697.057"/>
</g>
<!-- Post&#45;&gt;Reply -->
<g id="edge80" class="edge"><title>Post&#45;&gt;Reply</title>
<path fill="none" stroke="#c1f415" d="M391.031,-728.646C404.714,-703.44 419.574,-676.066 433.013,-651.31"/>
<ellipse fill="none" stroke="#c1f415" cx="389.067" cy="-732.262" rx="4.00002" ry="4.00002"/>
<polygon fill="#c1f415" stroke="#c1f415" points="433.124,-651.105 441.85,-644.464 435.51,-646.711 437.895,-642.317 437.895,-642.317 437.895,-642.317 435.51,-646.711 433.94,-640.17 433.124,-651.105 433.124,-651.105"/>
</g>
<!-- Topic&#45;&gt;Track -->
<g id="edge82" class="edge"><title>Topic&#45;&gt;Track</title>
<path fill="none" stroke="#f6388e" d="M1552.76,-989.874C1569.59,-965.052 1587.71,-938.314 1604.58,-913.426"/>
<ellipse fill="none" stroke="#f6388e" cx="1550.28" cy="-993.532" rx="4.00002" ry="4.00002"/>
<polygon fill="#f6388e" stroke="#f6388e" points="1604.63,-913.341 1613.97,-907.588 1607.44,-909.202 1610.25,-905.063 1610.25,-905.063 1610.25,-905.063 1607.44,-909.202 1606.52,-902.538 1604.63,-913.341 1604.63,-913.341"/>
</g>
<!-- Topic&#45;&gt;TrackProgression -->
<g id="edge84" class="edge"><title>Topic&#45;&gt;TrackProgression</title>
<path fill="none" stroke="#0b4a9a" d="M1406.42,-991.484C1391.71,-979.091 1375.6,-967.955 1358.61,-960 1216.18,-893.333 1163.28,-937.582 1006.61,-924 950.456,-919.132 806.746,-924.802 753.61,-906 740.87,-901.492 728.235,-895.364 716.14,-888.41"/>
<ellipse fill="none" stroke="#0b4a9a" cx="1409.61" cy="-994.248" rx="4.00002" ry="4.00002"/>
<polygon fill="#0b4a9a" stroke="#0b4a9a" points="716.021,-888.339 709.742,-879.348 711.728,-885.775 707.435,-883.212 707.435,-883.212 707.435,-883.212 711.728,-885.775 705.128,-887.075 716.021,-888.339 716.021,-888.339"/>
<text text-anchor="middle" x="1353.61" y="-929.4" font-family="Times Roman,serif" font-size="14.00">progressions</text>
</g>
<!-- Student&#45;&gt;Recommendation -->
<g id="edge94" class="edge"><title>Student&#45;&gt;Recommendation</title>
<path fill="none" stroke="#23ae27" d="M950.493,-953.087C947.373,-943.068 943.77,-933.263 939.61,-924 935.27,-914.338 929.908,-904.752 924.015,-895.509"/>
<ellipse fill="none" stroke="#23ae27" cx="951.644" cy="-956.952" rx="4.00001" ry="4.00001"/>
<polygon fill="#23ae27" stroke="#23ae27" points="923.986,-895.465 922.22,-884.643 921.227,-891.296 918.467,-887.126 918.467,-887.126 918.467,-887.126 921.227,-891.296 914.715,-889.609 923.986,-895.465 923.986,-895.465"/>
</g>
<!-- Student&#45;&gt;Reply -->
<g id="edge88" class="edge"><title>Student&#45;&gt;Reply</title>
<path fill="none" stroke="#b1c15c" d="M879.796,-965.973C877.427,-963.917 875.031,-961.923 872.61,-960 857.659,-948.129 850.346,-951.184 833.61,-942 820.64,-934.883 818.916,-930.465 805.61,-924 783.612,-913.312 769.788,-924.341 753.61,-906 699.524,-844.681 761.895,-793.401 715.61,-726 679.56,-673.504 619.307,-634.602 568.32,-608.901"/>
<ellipse fill="none" stroke="#b1c15c" cx="883.028" cy="-968.878" rx="4.00002" ry="4.00002"/>
<polygon fill="#b1c15c" stroke="#b1c15c" points="568.208,-608.846 561.237,-600.38 563.726,-606.63 559.243,-604.414 559.243,-604.414 559.243,-604.414 563.726,-606.63 557.249,-608.448 568.208,-608.846 568.208,-608.846"/>
</g>
<!-- Student&#45;&gt;Post -->
<g id="edge86" class="edge"><title>Student&#45;&gt;Post</title>
<path fill="none" stroke="#047608" d="M879.185,-1017.29C844.72,-995.015 804.041,-972.771 763.61,-960 646.391,-922.974 601.214,-988.96 487.61,-942 465.08,-932.687 443.633,-918.358 424.5,-902.655"/>
<ellipse fill="none" stroke="#047608" cx="882.646" cy="-1019.56" rx="4.00002" ry="4.00002"/>
<polygon fill="#047608" stroke="#047608" points="424.369,-902.545 419.629,-892.657 420.548,-899.321 416.727,-896.096 416.727,-896.096 416.727,-896.096 420.548,-899.321 413.825,-899.535 424.369,-902.545 424.369,-902.545"/>
</g>
<!-- Solution -->
<g id="node19" class="node"><title>Solution</title>
<polyline fill="none" stroke="black" points="1369.11,-237 1510.11,-237 "/>
<path fill="none" stroke="black" d="M1510.11,-237C1516.11,-237 1522.11,-243 1522.11,-249"/>
<polyline fill="none" stroke="black" points="1522.11,-249 1522.11,-403 "/>
<path fill="none" stroke="black" d="M1522.11,-403C1522.11,-409 1516.11,-415 1510.11,-415"/>
<polyline fill="none" stroke="black" points="1510.11,-415 1369.11,-415 "/>
<path fill="none" stroke="black" d="M1369.11,-415C1363.11,-415 1357.11,-409 1357.11,-403"/>
<polyline fill="none" stroke="black" points="1357.11,-403 1357.11,-249 "/>
<path fill="none" stroke="black" d="M1357.11,-249C1357.11,-243 1363.11,-237 1369.11,-237"/>
<text text-anchor="middle" x="1439.61" y="-398.4" font-family="Times Roman,serif" font-size="14.00">Solution</text>
<polyline fill="none" stroke="black" points="1357.11,-389 1522.11,-389 "/>
<text text-anchor="start" x="1365.11" y="-372.4" font-family="Times Roman,serif" font-size="14.00">id :integer</text>
<text text-anchor="start" x="1365.11" y="-354.4" font-family="Times Roman,serif" font-size="14.00">code :text</text>
<text text-anchor="start" x="1365.11" y="-336.4" font-family="Times Roman,serif" font-size="14.00">length :integer</text>
<text text-anchor="start" x="1365.11" y="-318.4" font-family="Times Roman,serif" font-size="14.00">status :integer</text>
<text text-anchor="start" x="1365.11" y="-300.4" font-family="Times Roman,serif" font-size="14.00">student_id :integer</text>
<text text-anchor="start" x="1365.11" y="-282.4" font-family="Times Roman,serif" font-size="14.00">problem_id :integer</text>
<text text-anchor="start" x="1365.11" y="-264.4" font-family="Times Roman,serif" font-size="14.00">created_at :datetime</text>
<text text-anchor="start" x="1365.11" y="-246.4" font-family="Times Roman,serif" font-size="14.00">updated_at :datetime</text>
</g>
<!-- Student&#45;&gt;Solution -->
<g id="edge92" class="edge"><title>Student&#45;&gt;Solution</title>
<path fill="none" stroke="#6f96fb" d="M990.522,-952.685C1004.92,-882.145 1028.86,-795.911 1067.61,-726 1140.14,-595.167 1264.52,-473.698 1349.32,-399.727"/>
<ellipse fill="none" stroke="#6f96fb" cx="989.687" cy="-956.847" rx="4.00001" ry="4.00001"/>
<polygon fill="#6f96fb" stroke="#6f96fb" points="1349.34,-399.715 1359.84,-396.559 1353.11,-396.438 1356.89,-393.16 1356.89,-393.16 1356.89,-393.16 1353.11,-396.438 1353.94,-389.762 1349.34,-399.715 1349.34,-399.715"/>
</g>
<!-- Student&#45;&gt;Problem -->
<g id="edge96" class="edge"><title>Student&#45;&gt;Problem</title>
<path fill="none" stroke="#6e6b3a" d="M1034.4,-952.239C1041.03,-942.317 1048.11,-932.772 1055.61,-924 1181.27,-776.932 1383.75,-670.513 1507.44,-614.961"/>
<polygon fill="#6e6b3a" stroke="#6e6b3a" points="1034.39,-952.266 1025.17,-958.202 1031.66,-956.459 1028.94,-960.653 1028.94,-960.653 1028.94,-960.653 1031.66,-956.459 1032.71,-963.104 1034.39,-952.266 1034.39,-952.266"/>
<polygon fill="#6e6b3a" stroke="#6e6b3a" points="1507.44,-614.96 1518.41,-614.996 1512.01,-612.923 1516.58,-610.886 1516.58,-610.886 1516.58,-610.886 1512.01,-612.923 1514.74,-606.777 1507.44,-614.96 1507.44,-614.96"/>
<text text-anchor="middle" x="1378.61" y="-812.4" font-family="Times Roman,serif" font-size="14.00">recommended_problems</text>
</g>
<!-- Student&#45;&gt;TrackProgression -->
<g id="edge90" class="edge"><title>Student&#45;&gt;TrackProgression</title>
<path fill="none" stroke="#058512" d="M878.966,-963.835C876.879,-962.493 874.76,-961.212 872.61,-960 812.969,-926.37 778.997,-976.076 719.61,-942 708.39,-935.562 692.52,-916.728 676.958,-895.519"/>
<ellipse fill="none" stroke="#058512" cx="882.645" cy="-966.363" rx="4.00002" ry="4.00002"/>
<polygon fill="#058512" stroke="#058512" points="676.874,-895.403 674.668,-884.661 673.947,-891.349 671.019,-887.295 671.019,-887.295 671.019,-887.295 673.947,-891.349 667.371,-889.93 676.874,-895.403 676.874,-895.403"/>
<text text-anchor="middle" x="762.61" y="-929.4" font-family="Times Roman,serif" font-size="14.00">progressions</text>
</g>
<!-- Staff -->
<g id="node20" class="node"><title>Staff</title>
<polyline fill="none" stroke="black" points="1193.11,-961 1338.11,-961 "/>
<path fill="none" stroke="black" d="M1338.11,-961C1344.11,-961 1350.11,-967 1350.11,-973"/>
<polyline fill="none" stroke="black" points="1350.11,-973 1350.11,-1199 "/>
<path fill="none" stroke="black" d="M1350.11,-1199C1350.11,-1205 1344.11,-1211 1338.11,-1211"/>
<polyline fill="none" stroke="black" points="1338.11,-1211 1193.11,-1211 "/>
<path fill="none" stroke="black" d="M1193.11,-1211C1187.11,-1211 1181.11,-1205 1181.11,-1199"/>
<polyline fill="none" stroke="black" points="1181.11,-1199 1181.11,-973 "/>
<path fill="none" stroke="black" d="M1181.11,-973C1181.11,-967 1187.11,-961 1193.11,-961"/>
<text text-anchor="middle" x="1265.61" y="-1194.4" font-family="Times Roman,serif" font-size="14.00">Staff</text>
<polyline fill="none" stroke="black" points="1181.11,-1185 1350.11,-1185 "/>
<text text-anchor="start" x="1189.11" y="-1168.4" font-family="Times Roman,serif" font-size="14.00">id :integer</text>
<text text-anchor="start" x="1189.11" y="-1150.4" font-family="Times Roman,serif" font-size="14.00">name :string</text>
<text text-anchor="start" x="1189.11" y="-1132.4" font-family="Times Roman,serif" font-size="14.00">email :string</text>
<text text-anchor="start" x="1189.11" y="-1114.4" font-family="Times Roman,serif" font-size="14.00">verified_type :boolean</text>
<text text-anchor="start" x="1189.11" y="-1096.4" font-family="Times Roman,serif" font-size="14.00">password :string</text>
<text text-anchor="start" x="1189.11" y="-1078.4" font-family="Times Roman,serif" font-size="14.00">dob :date</text>
<text text-anchor="start" x="1189.11" y="-1060.4" font-family="Times Roman,serif" font-size="14.00">age :integer</text>
<text text-anchor="start" x="1189.11" y="-1042.4" font-family="Times Roman,serif" font-size="14.00">profile_image :string</text>
<text text-anchor="start" x="1189.11" y="-1024.4" font-family="Times Roman,serif" font-size="14.00">gender :boolean</text>
<text text-anchor="start" x="1189.11" y="-1006.4" font-family="Times Roman,serif" font-size="14.00">type :string</text>
<text text-anchor="start" x="1189.11" y="-988.4" font-family="Times Roman,serif" font-size="14.00">created_at :datetime</text>
<text text-anchor="start" x="1189.11" y="-970.4" font-family="Times Roman,serif" font-size="14.00">updated_at :datetime</text>
</g>
<!-- Staff&#45;&gt;MethodParameter -->
<g id="edge112" class="edge"><title>Staff&#45;&gt;MethodParameter</title>
<path fill="none" stroke="#ba2057" d="M1195.51,-954.662C1185.35,-943.063 1174.06,-932.515 1161.61,-924 1128.3,-901.219 1103.79,-931.619 1072.61,-906 1005.65,-850.982 1047.02,-797.201 997.61,-726 836.486,-493.822 576.941,-282.345 432.747,-174.368"/>
<ellipse fill="none" stroke="#ba2057" cx="1198.14" cy="-957.764" rx="4.00002" ry="4.00002"/>
<polygon fill="#ba2057" stroke="#ba2057" points="432.707,-174.338 427.386,-164.75 428.7,-171.347 424.694,-168.355 424.694,-168.355 424.694,-168.355 428.7,-171.347 422.001,-171.961 432.707,-174.338 432.707,-174.338"/>
</g>
<!-- Staff&#45;&gt;TestCase -->
<g id="edge116" class="edge"><title>Staff&#45;&gt;TestCase</title>
<path fill="none" stroke="#73d129" d="M1356.42,-965.973C1358.79,-963.917 1361.19,-961.923 1363.61,-960 1378.56,-948.129 1388.48,-954.838 1402.61,-942 1416.32,-929.543 1417.16,-923.362 1423.61,-906 1494.81,-714.477 1363.09,-598.449 1507.61,-454 1570.91,-390.731 1625.09,-451.328 1712.03,-415.667"/>
<ellipse fill="none" stroke="#73d129" cx="1353.19" cy="-968.878" rx="4.00002" ry="4.00002"/>
<polygon fill="#73d129" stroke="#73d129" points="1712.25,-415.571 1723.21,-415.622 1716.82,-413.541 1721.39,-411.51 1721.39,-411.51 1721.39,-411.51 1716.82,-413.541 1719.56,-407.398 1712.25,-415.571 1712.25,-415.571"/>
</g>
<!-- Staff&#45;&gt;Reply -->
<g id="edge100" class="edge"><title>Staff&#45;&gt;Reply</title>
<path fill="none" stroke="#f5a4a8" d="M1173.97,-1027.27C1139.62,-1005.67 1100.08,-981.298 1063.61,-960 1049.18,-951.575 1041.3,-954.837 1030.61,-942 965.935,-864.354 1031.32,-797.203 959.61,-726 904.128,-670.908 693.238,-617.67 569.221,-590.219"/>
<ellipse fill="none" stroke="#f5a4a8" cx="1177.39" cy="-1029.42" rx="4.00002" ry="4.00002"/>
<polygon fill="#f5a4a8" stroke="#f5a4a8" points="569.108,-590.195 560.308,-583.651 564.224,-589.121 559.341,-588.046 559.341,-588.046 559.341,-588.046 564.224,-589.121 558.374,-592.441 569.108,-590.195 569.108,-590.195"/>
</g>
<!-- Staff&#45;&gt;ModelAnswer -->
<g id="edge108" class="edge"><title>Staff&#45;&gt;ModelAnswer</title>
<path fill="none" stroke="#030f2c" d="M1355.61,-968.587C1358.27,-965.666 1360.94,-962.798 1363.61,-960 1372.09,-951.103 1378.93,-952.903 1384.61,-942 1485.27,-748.703 1310.96,-634.827 1432.61,-454 1458.69,-415.239 1490.44,-439.844 1530.61,-416 1536.85,-412.296 1542.98,-408.073 1548.92,-403.523"/>
<ellipse fill="none" stroke="#030f2c" cx="1352.84" cy="-971.677" rx="4.00002" ry="4.00002"/>
<polygon fill="#030f2c" stroke="#030f2c" points="1549.1,-403.382 1559.72,-400.647 1553,-400.258 1556.91,-397.134 1556.91,-397.134 1556.91,-397.134 1553,-400.258 1554.1,-393.62 1549.1,-403.382 1549.1,-403.382"/>
</g>
<!-- Staff&#45;&gt;Track -->
<g id="edge104" class="edge"><title>Staff&#45;&gt;Track</title>
<path fill="none" stroke="#bf6223" d="M1356.74,-985.206C1369.3,-975.442 1382.69,-966.697 1396.61,-960 1451.95,-933.382 1477.97,-967.998 1533.61,-942 1550.56,-934.079 1566.86,-923.294 1581.92,-911.347"/>
<ellipse fill="none" stroke="#bf6223" cx="1353.38" cy="-987.899" rx="4.00002" ry="4.00002"/>
<polygon fill="#bf6223" stroke="#bf6223" points="1581.94,-911.331 1592.53,-908.487 1585.81,-908.166 1589.68,-905.002 1589.68,-905.002 1589.68,-905.002 1585.81,-908.166 1586.83,-901.518 1581.94,-911.331 1581.94,-911.331"/>
</g>
<!-- Staff&#45;&gt;Post -->
<g id="edge98" class="edge"><title>Staff&#45;&gt;Post</title>
<path fill="none" stroke="#520b3b" d="M1174.05,-1014.8C1141.05,-993.083 1102.36,-971.837 1063.61,-960 954.941,-926.806 661.528,-974.368 552.61,-942 519.897,-932.278 487.078,-916.2 457.459,-898.728"/>
<ellipse fill="none" stroke="#520b3b" cx="1177.67" cy="-1017.22" rx="4.00002" ry="4.00002"/>
<polygon fill="#520b3b" stroke="#520b3b" points="457.358,-898.667 451.102,-889.66 453.071,-896.092 448.785,-893.518 448.785,-893.518 448.785,-893.518 453.071,-896.092 446.468,-897.376 457.358,-898.667 457.358,-898.667"/>
</g>
<!-- Staff&#45;&gt;MethodConstraint -->
<g id="edge110" class="edge"><title>Staff&#45;&gt;MethodConstraint</title>
<path fill="none" stroke="#5c356c" d="M1214.96,-954.196C1206.78,-942.878 1197.38,-932.519 1186.61,-924 1158.03,-901.392 1130.36,-933.641 1106.61,-906 1048.83,-838.753 1092.61,-795.663 1092.61,-707 1092.61,-707 1092.61,-707 1092.61,-326 1092.61,-275.743 1108.84,-222.033 1125.89,-179.48"/>
<ellipse fill="none" stroke="#5c356c" cx="1217.37" cy="-957.674" rx="4.00002" ry="4.00002"/>
<polygon fill="#5c356c" stroke="#5c356c" points="1125.98,-179.276 1133.93,-171.729 1127.87,-174.649 1129.77,-170.023 1129.77,-170.023 1129.77,-170.023 1127.87,-174.649 1125.61,-168.316 1125.98,-179.276 1125.98,-179.276"/>
</g>
<!-- Staff&#45;&gt;Problem -->
<g id="edge106" class="edge"><title>Staff&#45;&gt;Problem</title>
<path fill="none" stroke="#e631e1" d="M1356.44,-988.21C1369.2,-977.695 1382.73,-967.951 1396.61,-960 1422.25,-945.317 1438.94,-962.093 1460.61,-942 1542.46,-866.088 1502.31,-808.471 1546.61,-706 1547.98,-702.833 1549.39,-699.635 1550.83,-696.417"/>
<ellipse fill="none" stroke="#e631e1" cx="1353.3" cy="-990.853" rx="4.00002" ry="4.00002"/>
<polygon fill="#e631e1" stroke="#e631e1" points="1550.83,-696.416 1559.06,-689.168 1552.89,-691.862 1554.96,-687.309 1554.96,-687.309 1554.96,-687.309 1552.89,-691.862 1550.86,-685.45 1550.83,-696.416 1550.83,-696.416"/>
</g>
<!-- Staff&#45;&gt;TrackProgression -->
<g id="edge102" class="edge"><title>Staff&#45;&gt;TrackProgression</title>
<path fill="none" stroke="#3d26fb" d="M1173.89,-1017.01C1140.74,-995.347 1101.99,-973.568 1063.61,-960 1001.55,-938.063 981.487,-953.11 916.61,-942 880.047,-935.739 787.582,-920.898 753.61,-906 740.932,-900.44 728.216,-893.553 715.975,-886.082"/>
<ellipse fill="none" stroke="#3d26fb" cx="1177.54" cy="-1019.42" rx="4.00002" ry="4.00002"/>
<polygon fill="#3d26fb" stroke="#3d26fb" points="715.624,-885.863 709.543,-876.738 711.388,-883.206 707.152,-880.55 707.152,-880.55 707.152,-880.55 711.388,-883.206 704.762,-884.362 715.624,-885.863 715.624,-885.863"/>
<text text-anchor="middle" x="959.61" y="-929.4" font-family="Times Roman,serif" font-size="14.00">progressions</text>
</g>
<!-- Staff&#45;&gt;VariableConstraint -->
<g id="edge114" class="edge"><title>Staff&#45;&gt;VariableConstraint</title>
<path fill="none" stroke="#d2e4ad" d="M1309.48,-952.534C1313.22,-936.986 1316.41,-921.239 1318.61,-906 1321.9,-883.191 1316.08,-526.952 1315.61,-436 1315.15,-347.112 1262.59,-307.342 1315.61,-236 1357.22,-180.012 1542.43,-138.208 1663.34,-116.282"/>
<ellipse fill="none" stroke="#d2e4ad" cx="1308.43" cy="-956.76" rx="4.00001" ry="4.00001"/>
<polygon fill="#d2e4ad" stroke="#d2e4ad" points="1663.54,-116.246 1674.18,-118.909 1668.46,-115.363 1673.39,-114.48 1673.39,-114.48 1673.39,-114.48 1668.46,-115.363 1672.59,-110.05 1663.54,-116.246 1663.54,-116.246"/>
</g>
<!-- Staff&#45;&gt;Hint -->
<g id="edge118" class="edge"><title>Staff&#45;&gt;Hint</title>
<path fill="none" stroke="#d762c3" d="M1324.34,-953.047C1325.49,-949.345 1326.59,-945.658 1327.61,-942 1331.95,-926.442 1331.3,-922.101 1332.61,-906 1334.12,-887.445 1335.77,-249.476 1348.61,-236 1389.19,-193.424 1820.46,-215.504 1876.61,-198 1894.5,-192.423 1912.51,-184.63 1929.75,-175.839"/>
<ellipse fill="none" stroke="#d762c3" cx="1323.11" cy="-956.855" rx="4.00001" ry="4.00001"/>
<polygon fill="#d762c3" stroke="#d762c3" points="1929.83,-175.797 1940.77,-175.144 1934.26,-173.477 1938.68,-171.158 1938.68,-171.158 1938.68,-171.158 1934.26,-173.477 1936.6,-167.171 1929.83,-175.797 1929.83,-175.797"/>
</g>
<!-- NotificationMail -->
<g id="node21" class="node"><title>NotificationMail</title>
<polyline fill="none" stroke="black" points="2421.11,-1861 2562.11,-1861 "/>
<path fill="none" stroke="black" d="M2562.11,-1861C2568.11,-1861 2574.11,-1867 2574.11,-1873"/>
<polyline fill="none" stroke="black" points="2574.11,-1873 2574.11,-1991 "/>
<path fill="none" stroke="black" d="M2574.11,-1991C2574.11,-1997 2568.11,-2003 2562.11,-2003"/>
<polyline fill="none" stroke="black" points="2562.11,-2003 2421.11,-2003 "/>
<path fill="none" stroke="black" d="M2421.11,-2003C2415.11,-2003 2409.11,-1997 2409.11,-1991"/>
<polyline fill="none" stroke="black" points="2409.11,-1991 2409.11,-1873 "/>
<path fill="none" stroke="black" d="M2409.11,-1873C2409.11,-1867 2415.11,-1861 2421.11,-1861"/>
<text text-anchor="middle" x="2491.61" y="-1986.4" font-family="Times Roman,serif" font-size="14.00">NotificationMail</text>
<polyline fill="none" stroke="black" points="2409.11,-1977 2574.11,-1977 "/>
<text text-anchor="start" x="2417.11" y="-1960.4" font-family="Times Roman,serif" font-size="14.00">id :integer</text>
<text text-anchor="start" x="2417.11" y="-1942.4" font-family="Times Roman,serif" font-size="14.00">subject :string</text>
<text text-anchor="start" x="2417.11" y="-1924.4" font-family="Times Roman,serif" font-size="14.00">email :string</text>
<text text-anchor="start" x="2417.11" y="-1906.4" font-family="Times Roman,serif" font-size="14.00">content :text</text>
<text text-anchor="start" x="2417.11" y="-1888.4" font-family="Times Roman,serif" font-size="14.00">created_at :datetime</text>
<text text-anchor="start" x="2417.11" y="-1870.4" font-family="Times Roman,serif" font-size="14.00">updated_at :datetime</text>
</g>
<!-- Problem&#45;&gt;TestCase -->
<g id="edge122" class="edge"><title>Problem&#45;&gt;TestCase</title>
<path fill="none" stroke="#a2ead8" d="M1716.45,-448.691C1723.64,-440.051 1730.84,-431.41 1737.89,-422.94"/>
<ellipse fill="none" stroke="#a2ead8" cx="1713.79" cy="-451.883" rx="4.00002" ry="4.00002"/>
<polygon fill="#a2ead8" stroke="#a2ead8" points="1737.93,-422.899 1747.78,-418.094 1741.13,-419.057 1744.33,-415.214 1744.33,-415.214 1744.33,-415.214 1741.13,-419.057 1740.87,-412.335 1737.93,-422.899 1737.93,-422.899"/>
</g>
<!-- Problem&#45;&gt;ModelAnswer -->
<g id="edge120" class="edge"><title>Problem&#45;&gt;ModelAnswer</title>
<path fill="none" stroke="#10dd31" d="M1618.16,-446.653C1618.54,-433.303 1618.92,-419.982 1619.29,-407.325"/>
<ellipse fill="none" stroke="#10dd31" cx="1618.04" cy="-450.959" rx="4" ry="4"/>
<polygon fill="#10dd31" stroke="#10dd31" points="1619.29,-407.324 1624.07,-397.457 1619.43,-402.326 1619.57,-397.328 1619.57,-397.328 1619.57,-397.328 1619.43,-402.326 1615.07,-397.2 1619.29,-407.324 1619.29,-407.324"/>
</g>
<!-- Problem&#45;&gt;Solution -->
<g id="edge124" class="edge"><title>Problem&#45;&gt;Solution</title>
<path fill="none" stroke="#5e62d6" d="M1527.02,-448.377C1521.03,-439.992 1515.04,-431.608 1509.17,-423.382"/>
<ellipse fill="none" stroke="#5e62d6" cx="1529.4" cy="-451.702" rx="4.00002" ry="4.00002"/>
<polygon fill="#5e62d6" stroke="#5e62d6" points="1509.15,-423.351 1507,-412.599 1506.24,-419.283 1503.33,-415.214 1503.33,-415.214 1503.33,-415.214 1506.24,-419.283 1499.67,-417.83 1509.15,-423.351 1509.15,-423.351"/>
</g>
<!-- User -->
<g id="node24" class="node"><title>User</title>
<polyline fill="none" stroke="black" points="192.11,-961 337.11,-961 "/>
<path fill="none" stroke="black" d="M337.11,-961C343.11,-961 349.11,-967 349.11,-973"/>
<polyline fill="none" stroke="black" points="349.11,-973 349.11,-1199 "/>
<path fill="none" stroke="black" d="M349.11,-1199C349.11,-1205 343.11,-1211 337.11,-1211"/>
<polyline fill="none" stroke="black" points="337.11,-1211 192.11,-1211 "/>
<path fill="none" stroke="black" d="M192.11,-1211C186.11,-1211 180.11,-1205 180.11,-1199"/>
<polyline fill="none" stroke="black" points="180.11,-1199 180.11,-973 "/>
<path fill="none" stroke="black" d="M180.11,-973C180.11,-967 186.11,-961 192.11,-961"/>
<text text-anchor="middle" x="264.61" y="-1194.4" font-family="Times Roman,serif" font-size="14.00">User</text>
<polyline fill="none" stroke="black" points="180.11,-1185 349.11,-1185 "/>
<text text-anchor="start" x="188.11" y="-1168.4" font-family="Times Roman,serif" font-size="14.00">id :integer</text>
<text text-anchor="start" x="188.11" y="-1150.4" font-family="Times Roman,serif" font-size="14.00">name :string</text>
<text text-anchor="start" x="188.11" y="-1132.4" font-family="Times Roman,serif" font-size="14.00">email :string</text>
<text text-anchor="start" x="188.11" y="-1114.4" font-family="Times Roman,serif" font-size="14.00">verified_type :boolean</text>
<text text-anchor="start" x="188.11" y="-1096.4" font-family="Times Roman,serif" font-size="14.00">password :string</text>
<text text-anchor="start" x="188.11" y="-1078.4" font-family="Times Roman,serif" font-size="14.00">dob :date</text>
<text text-anchor="start" x="188.11" y="-1060.4" font-family="Times Roman,serif" font-size="14.00">age :integer</text>
<text text-anchor="start" x="188.11" y="-1042.4" font-family="Times Roman,serif" font-size="14.00">profile_image :string</text>
<text text-anchor="start" x="188.11" y="-1024.4" font-family="Times Roman,serif" font-size="14.00">gender :boolean</text>
<text text-anchor="start" x="188.11" y="-1006.4" font-family="Times Roman,serif" font-size="14.00">type :string</text>
<text text-anchor="start" x="188.11" y="-988.4" font-family="Times Roman,serif" font-size="14.00">created_at :datetime</text>
<text text-anchor="start" x="188.11" y="-970.4" font-family="Times Roman,serif" font-size="14.00">updated_at :datetime</text>
</g>
<!-- User&#45;&gt;Reply -->
<g id="edge128" class="edge"><title>User&#45;&gt;Reply</title>
<path fill="none" stroke="#a315e3" d="M216.422,-952.694C199.011,-881.365 191.787,-794.388 229.61,-726 262.5,-666.532 328.809,-626.811 384.448,-602.48"/>
<ellipse fill="none" stroke="#a315e3" cx="217.503" cy="-956.99" rx="4.00001" ry="4.00001"/>
<polygon fill="#a315e3" stroke="#a315e3" points="384.791,-602.334 395.755,-602.55 389.39,-600.372 393.989,-598.411 393.989,-598.411 393.989,-598.411 389.39,-600.372 392.224,-594.272 384.791,-602.334 384.791,-602.334"/>
</g>
<!-- User&#45;&gt;Post -->
<g id="edge126" class="edge"><title>User&#45;&gt;Post</title>
<path fill="none" stroke="#a8dd51" d="M249.723,-952.797C251.136,-942.919 253.358,-933.22 256.61,-924 258.87,-917.593 261.688,-911.286 264.915,-905.134"/>
<ellipse fill="none" stroke="#a8dd51" cx="249.24" cy="-956.781" rx="4.00001" ry="4.00001"/>
<polygon fill="#a8dd51" stroke="#a8dd51" points="265.015,-904.957 273.84,-898.447 267.466,-900.599 269.918,-896.241 269.918,-896.241 269.918,-896.241 267.466,-900.599 265.995,-894.035 265.015,-904.957 265.015,-904.957"/>
</g>
<!-- User&#45;&gt;TrackProgression -->
<g id="edge130" class="edge"><title>User&#45;&gt;TrackProgression</title>
<path fill="none" stroke="#016409" d="M355.365,-994.191C368.497,-982.257 382.137,-970.535 395.61,-960 438.701,-926.304 489.986,-893.461 533.088,-867.67"/>
<ellipse fill="none" stroke="#016409" cx="352.318" cy="-996.984" rx="4.00002" ry="4.00002"/>
<polygon fill="#016409" stroke="#016409" points="533.281,-867.556 544.176,-866.309 537.578,-864.999 541.875,-862.442 541.875,-862.442 541.875,-862.442 537.578,-864.999 539.574,-858.575 533.281,-867.556 533.281,-867.556"/>
<text text-anchor="middle" x="485.61" y="-929.4" font-family="Times Roman,serif" font-size="14.00">progressions</text>
</g>
</g>
</svg>
